<svg width="41" height="52" viewBox="0 0 41 52" fill="none" xmlns="http://www.w3.org/2000/svg">
<path d="M1.70626 21.617C1.44084 21.5884 1.46753 21.4289 1.87699 20.5969C2.04432 20.257 2.11424 20.0687 2.11424 19.9581C2.11424 19.8119 2.10321 19.7962 1.94279 19.7255C1.84846 19.6838 1.53414 19.6133 1.24423 19.5689C0.685127 19.4832 0.448467 19.409 0.409347 19.307C0.363891 19.1887 0.489228 18.9949 0.87235 18.591C1.30829 18.1313 1.43432 17.9668 1.43432 17.8574C1.43432 17.7265 1.21939 17.5664 0.647453 17.2711C0.256895 17.0696 0.0779301 16.9545 0.0356371 16.8778C-0.0215757 16.7739 -0.0185153 16.7635 0.108896 16.632C0.182037 16.5565 0.415772 16.4002 0.628161 16.2848C1.34443 15.8955 1.46797 15.7861 1.41772 15.5858C1.40375 15.5302 1.20295 15.2861 0.971498 15.0435C0.521887 14.5721 0.394809 14.3991 0.394576 14.258C0.394368 14.1418 0.463672 14.1102 0.894361 14.0301C1.85467 13.8516 2.03458 13.7954 2.1125 13.6498C2.16605 13.5498 2.10635 13.3859 1.81324 12.8219C1.63498 12.4795 1.57746 12.3258 1.5632 12.154C1.54555 11.9409 1.54936 11.9296 1.64798 11.9049C1.74698 11.88 1.99383 11.9061 2.7709 12.0239C3.17604 12.0853 3.31286 12.0586 3.39682 11.9017C3.4435 11.8145 3.43859 11.7131 3.36129 11.1737C3.25592 10.4386 3.25188 10.275 3.33691 10.19C3.37146 10.1554 3.40711 10.1271 3.41593 10.1271C3.47106 10.1271 4.01004 10.3549 4.45385 10.5658L4.97378 10.8128L5.08062 10.6852C5.19885 10.544 5.27942 10.2648 5.37195 9.67548C5.43737 9.25915 5.50846 9.07318 5.61853 9.03094C5.70589 8.99743 5.91824 9.1383 6.27744 9.46794C6.62685 9.78859 6.86442 9.98139 6.99175 10.0476C7.08242 10.0948 7.09957 10.0876 7.21448 9.95463C7.28297 9.8754 7.43567 9.63432 7.55379 9.41891C7.90527 8.7779 8.0232 8.6073 8.11482 8.6073C8.23183 8.6073 8.37064 8.77287 8.58324 9.16592C8.84591 9.65157 9.06996 10.0013 9.14549 10.0436C9.24755 10.1006 9.45063 9.9717 9.88755 9.5724C10.7659 8.76971 10.7663 8.76994 10.9924 10.1542C11.0351 10.416 11.2182 10.807 11.298 10.807C11.3127 10.807 11.6114 10.6701 11.9617 10.5029C12.6261 10.1855 12.8643 10.1171 12.9774 10.211C13.0729 10.2902 13.0289 10.7583 12.9071 10.9587C12.814 11.112 11.7625 12.2068 11.7085 12.2068C11.6917 12.2068 11.5194 12.1066 11.3255 11.984C10.6363 11.5484 9.91349 11.2574 9.13185 11.101C8.5955 10.9936 7.55394 11.0044 6.99531 11.123C5.87242 11.3615 4.907 11.8873 4.09234 12.704C3.23959 13.559 2.69761 14.5834 2.48566 15.7409C2.38654 16.2823 2.39585 17.4204 2.50354 17.9261C2.64529 18.5917 3.02506 19.4912 3.39 20.0258C3.48005 20.1578 3.55386 20.2915 3.55391 20.3229C3.55403 20.3961 2.48101 21.4597 2.32907 21.5368C2.19618 21.6043 1.91937 21.64 1.70621 21.617H1.70626ZM4.44999 18.9363C4.28923 18.7755 3.93832 17.9016 3.8276 17.3862C3.74392 16.9968 3.76315 16.0908 3.86349 15.6864C4.06167 14.8884 4.41988 14.2575 5.01196 13.6635C5.60709 13.0665 6.20982 12.7098 6.97354 12.5027C7.36279 12.3972 8.38706 12.3957 8.8733 12.5C9.34333 12.6008 9.85294 12.7993 10.2349 13.0302L10.5572 13.225L7.78552 15.9883C5.27622 18.4898 4.72634 19.0059 4.56986 19.0059C4.54217 19.0059 4.48826 18.9745 4.44991 18.9362L4.44999 18.9363Z" fill="#EB5757"/>
<path d="M7.5936 23.5055C7.5936 22.7246 7.57977 22.0856 7.56286 22.0856C7.54596 22.0856 7.3435 22.2763 7.11292 22.5094C6.88235 22.7425 6.43656 23.1747 6.12228 23.4699C5.65514 23.9087 5.53811 23.9998 5.48089 23.9692C5.44242 23.9486 5.24369 23.7743 5.03932 23.5819L4.66772 23.2321L6.13065 21.7688L7.59358 20.3055V19.3055V18.3056L8.6837 17.216L9.77383 16.1264H10.7736H11.7735L13.1726 14.7268L14.5718 13.3272L15.0024 13.7564L15.4329 14.1857L14.4632 15.156L13.4934 16.1264H14.8829H16.2725V16.7263V17.3263H14.8526C14.0717 17.3263 13.4328 17.3396 13.4328 17.356C13.4328 17.3723 13.8841 17.8372 14.4356 18.389L15.4383 19.3924L15.0316 19.7791C14.8079 19.9918 14.6075 20.1659 14.5864 20.1659C14.534 20.1659 13.47 19.1505 12.4733 18.1494L11.6538 17.3263H10.6235C10.0569 17.3263 9.59331 17.3399 9.59331 17.3564C9.59331 17.373 10.2231 18.0163 10.9929 18.7858L12.3925 20.185L11.9632 20.6156L11.534 21.0462L10.1237 19.6364L8.71342 18.2265V19.266V20.3054L10.1626 21.755L11.6118 23.2046L11.3324 23.488C11.1788 23.6439 10.9853 23.8258 10.9024 23.8924L10.7516 24.0133L9.76587 23.0414C8.92247 22.2099 8.7757 22.0808 8.74958 22.1476C8.73279 22.1906 8.71772 22.833 8.71625 23.5754L8.7138 24.9252H8.15384H7.59391L7.5936 23.5055Z" fill="#EB5757"/>
<path d="M22.2504 51.9504C20.9046 51.8445 19.4416 51.2884 18.374 50.4767C16.6733 49.1837 15.6423 47.3476 15.4553 45.2792C15.3981 44.6457 15.4541 43.6334 15.577 43.0216C15.8105 41.8727 16.5061 40.5368 17.3524 39.6117L17.7215 39.2083L17.7534 25.6751C17.7707 18.2319 17.8045 11.7127 17.8279 11.1881C17.8725 10.1828 17.8938 10.0751 18.1751 9.44472C18.3741 8.99833 18.8753 8.28681 19.2655 7.89679C20.6462 6.5167 22.5084 6.07523 24.3909 6.68175C25.1213 6.9171 26.009 7.48498 26.5095 8.03714C27.093 8.68085 27.557 9.55881 27.6705 10.2342C27.8158 11.0986 27.8331 12.7611 27.8337 25.918L27.8347 39.0891L28.059 39.3427C29.151 40.5769 29.8188 41.8565 30.05 43.1578C30.1649 43.8037 30.1666 45.4506 30.055 46.0119C29.807 47.2402 29.1605 48.5432 28.3488 49.4508C26.8035 51.1787 24.492 52.1265 22.2523 51.9504H22.2504ZM24.1246 50.8991C25.3537 50.7305 26.3159 50.2261 27.2755 49.2471C28.0147 48.493 28.5221 47.6556 28.8517 46.646C29.047 46.0479 29.0888 45.7028 29.0888 44.6916C29.0888 43.6806 29.0503 43.3662 28.8544 42.7777C28.5397 41.8322 28.0353 40.9992 27.334 40.267L26.9036 39.8175L26.8986 27.4455C26.8974 20.6409 26.8782 14.1103 26.8575 12.9331C26.8235 10.9993 26.8108 10.7584 26.7253 10.4392C26.344 9.01698 25.3134 7.97531 23.8445 7.52756C23.4885 7.41905 23.3542 7.40283 22.8074 7.40189C22.3008 7.40105 22.1071 7.42097 21.8069 7.50374C20.4299 7.88383 19.3531 8.89407 18.9464 10.1876C18.8546 10.4793 18.8399 10.6665 18.8037 11.9791C18.7816 12.7853 18.7626 19.3643 18.7611 26.5992C18.7599 35.4085 18.7438 39.7632 18.7118 39.7827C18.593 39.8561 17.7511 40.8324 17.5515 41.1281C17.0564 41.8618 16.6901 42.7844 16.5461 43.6609C16.4494 44.2473 16.4747 45.4472 16.5949 45.9945C16.8764 47.2771 17.475 48.3916 18.3598 49.2809C19.1144 50.0393 19.9462 50.5156 21.0854 50.8414C21.7036 51.0182 23.0649 51.0441 24.1229 50.899L24.1246 50.8991ZM22.0077 49.7412C21.4894 49.6565 20.8319 49.4366 20.3972 49.2027C19.2265 48.5726 18.2489 47.3671 17.8436 46.0539C17.7253 45.6704 17.7175 45.5917 17.7181 44.7614C17.7185 43.7855 17.7616 43.545 18.0752 42.764C18.3822 41.9994 18.5916 41.6958 19.3069 40.9779L19.9703 40.312V32.9626C19.9703 28.9204 19.9813 25.6132 19.9955 25.6132C20.0095 25.6132 20.0997 25.6534 20.1961 25.7026C20.6866 25.9529 21.6295 26.0535 23.1579 26.0188C24.2537 25.9938 24.8053 25.9271 25.3047 25.7584C25.4436 25.7115 25.5677 25.6903 25.5807 25.7111C25.5945 25.7321 25.617 26.0954 25.6331 26.5187L25.6621 27.2883H24.5381H23.414V27.6373V27.9863H24.5308H25.6476V30.0104V32.0346H24.5308H23.414V32.3604V32.6861H24.5308H25.6476V34.7103V36.7344H24.5308H23.414V37.0834V37.4324H24.5308H25.6476V38.9187V40.4051L25.9156 40.6113C26.488 41.0517 27.1408 41.8507 27.4457 42.484C27.5328 42.6646 27.6704 43.0625 27.7518 43.3681C27.8908 43.8905 27.8996 43.971 27.8983 44.7148C27.8971 45.5939 27.8434 45.8752 27.5358 46.6298C26.9073 48.1713 25.501 49.3452 23.8577 49.7002C23.389 49.8014 22.4975 49.8211 22.008 49.7413L22.0077 49.7412ZM21.692 25.4686C20.7557 25.3866 19.9935 25.1498 19.9935 24.9411C19.9935 24.5869 21.7163 24.3392 23.4661 24.4417C24.9679 24.5296 25.6325 24.6981 25.5911 24.9801C25.5704 25.1212 25.3248 25.2383 24.8461 25.3352C24.0021 25.5061 22.7327 25.5598 21.692 25.4685V25.4686Z" fill="#EB5757"/>
<path d="M7.15781 0.00325262C6.3889 0.0364771 5.71971 0.319038 5.15014 0.850631C4.49921 1.45816 4.15211 2.21748 4.10871 3.12878C4.06531 4.04008 4.34733 4.82131 4.95487 5.47224C5.5624 6.12317 6.32171 6.47027 7.23301 6.51367L19.4705 6.90424V7.03454H25.9797C29.9721 7.07794 33.856 7.09954 37.6314 7.09954C38.5427 7.09954 39.3023 6.79562 39.9098 6.18808C40.5608 5.53715 40.8863 4.75625 40.8863 3.84495C40.8863 2.93365 40.5608 2.17402 39.9098 1.56649C39.3023 0.915558 38.5427 0.59035 37.6314 0.59035C28.2146 0.59035 18.1689 0.395052 7.49361 0.00449417C7.3797 -0.000930241 7.26766 -0.00151619 7.15781 0.00312847V0.00325262ZM7.95073 0.95339C8.05489 0.949932 8.16085 0.949994 8.26887 0.954062C18.3922 1.24001 27.919 1.38302 36.849 1.38302C37.7132 1.38302 38.4334 1.62135 39.0095 2.09793C39.6268 2.54274 39.9355 3.09856 39.9355 3.76578C39.9355 4.43299 39.6268 5.005 39.0095 5.48158C38.4334 5.92639 37.7132 6.14884 36.849 6.14884C33.2688 6.14884 29.5856 6.13295 25.7996 6.10118H19.6268V6.00585L8.02222 5.71988C7.15803 5.68812 6.4378 5.43389 5.86167 4.9573C5.28554 4.48072 5.018 3.90871 5.05916 3.24149C5.10031 2.57428 5.42947 2.01847 6.04675 1.57366C6.58686 1.18445 7.22156 0.977763 7.95073 0.953441V0.95339Z" fill="#EB5757"/>
</svg>
