<?xml version="1.0" encoding="UTF-8"?>
<!DOCTYPE svg PUBLIC "-//W3C//DTD SVG 1.1//EN" "http://www.w3.org/Graphics/SVG/1.1/DTD/svg11.dtd">
<!-- Creator: CorelDRAW 2019 (64-Bit) -->
<svg xmlns="http://www.w3.org/2000/svg" xml:space="preserve" width="100" height="26" version="1.1" style="shape-rendering:geometricPrecision; text-rendering:geometricPrecision; image-rendering:optimizeQuality; fill-rule:evenodd; clip-rule:evenodd"
viewBox="0 0 955.39 253.49"
 xmlns:xlink="http://www.w3.org/1999/xlink"
 xmlns:xodm="http://www.corel.com/coreldraw/odm/2003">
 <defs>
  <style type="text/css">
   <![CDATA[
    .fil2 {fill:transparent}
    .fil0 {fill:#A87E59}
    .fil1 {fill:#2B2A29;fill-rule:nonzero}
    .fil3 {fill:#966F4C;fill-rule:nonzero}
   ]]>
  </style>
 </defs>
 <g id="Слой_x0020_1">
  <metadata id="CorelCorpID_0Corel-Layer"/>
  <g id="_2218404880880">
   <path id="men" class="fil0" d="M573.29 72.52c-0.14,-1.7 0.1,-1.65 0.66,-2.88 0.4,-0.88 1.08,-0.66 1.37,-2.11 0.15,-0.79 0.16,-2.55 -0.12,-3.22 -1.27,-0.15 -1.02,0.89 -1.02,-3.7 -0.01,-2.12 0,-2.88 -1.14,-4.08 -0.3,-0.33 -0.32,-0.38 -0.56,-0.68 -0.4,-0.5 -0.86,-0.84 -1.2,-1.39 -0.87,-1.41 -3.76,-1.43 -5.26,-1.42 -1.89,0 -1.94,0.84 -3.64,1.26 -4.21,1.07 -2.05,8.02 -2.2,9.97 -1.13,0.95 -0.79,1.85 -0.12,3.18 0.22,0.44 0.48,1.18 0.69,1.55 0.21,0.38 1.16,0.75 1.59,0.35 0.56,3.18 1.61,6.62 -1.82,8.18 -6.15,2.81 -8.42,1.82 -12.8,7.93 -0.94,1.32 -1.83,2.65 -2.75,3.97 -1.43,1.99 -2.58,3.66 -3.66,5.89 -1.32,2.89 -4.63,4.77 -6.42,8.92 -1.84,5.86 -1.19,12.44 -2.1,18.44 -0.33,2.21 -0.32,3.78 -0.05,5.96 0.25,1.57 -0.23,1.55 1.1,2.14 0.98,0.43 1.82,1.15 2.14,1.26 0.61,0.21 0.79,0.04 1.09,0.51 0.34,0.54 0.24,0.63 0.74,0.95 1.75,1.09 3.7,0.61 1.83,-1.38 0.52,-0.28 1.2,-0.57 0.48,-1.28 -0.63,-0.63 -1.74,0.47 -1.13,-3.17 0.19,-1.14 0.78,-1.65 1.08,-0.33 0.43,1.92 2.83,4.99 3.72,2.93 0.22,-0.79 -0.71,-0.83 -1.13,-2.05 -0.08,-0.24 -0.58,-2.04 0.02,-1.8 0.36,0.14 1.08,0.55 1.51,0.75 1.83,0.85 1.81,1.04 3.9,1.54 1.49,0.36 2.91,0.87 4.27,1.59 -1.22,0.48 -3.06,0.09 -3.62,2.28 -0.57,2.23 1.09,5.12 3.57,5.67 1.65,0.15 3.45,-1.09 6.29,-1.03 3.24,0.1 3.63,0.38 6.94,-0.28 0.98,1.63 -1.26,1.44 3.36,1.53 2.26,0.05 4.66,0.33 6.62,-0.92 0.85,-0.86 -0.03,-1.99 1.45,-0.4 0.73,0.83 1.15,3.82 3.68,1.84 1.66,-1.79 -0.04,-4.47 0.64,-5.77 0.58,-0.54 0.86,-0.48 1.58,-1.29 1.64,-1.88 1.12,-1.07 3.31,-1.93 1.44,-0.56 2.15,-0.81 3.63,-1.2 1.37,-0.35 1.8,-0.64 2.98,-1.39 0.34,-0.22 0.67,-0.43 1.01,-0.64 -0.64,1.14 -1.21,1.23 -1.57,1.82 -0.38,0.61 1.02,0.8 1.46,0.7 1.73,-0.53 2.9,-2.77 3.41,-2.82 0.61,0.21 0,3.94 -0.18,4.48 -0.47,1.17 -2.75,1.92 -2.08,3.2 0.46,0.88 2.29,-0.11 2.95,-0.37 3.18,-1.06 2.88,-0.01 4.71,-3.51 1.14,-2.19 0.69,-3.2 0.79,-5.52 0.04,-0.81 0.22,-1.23 0.59,-1.95 0.41,-0.77 0.49,-2.37 0.57,-3.28 0.19,-1.79 0.29,-3.53 0.27,-5.34l0 -0.43c-0.45,-10.01 -3.01,-10.52 -8.56,-17.95 -1.71,-2.3 -2.51,-3.34 -3.99,-5.94 -0.91,-1.58 -1.76,-3.03 -2.79,-4.55 -1.48,-2.02 -2.85,-3.42 -5.04,-4.65 -3.21,-1.67 -8.07,-2.07 -10.5,-4.75 -0.43,-0.89 -0.49,-2.41 -0.55,-3.39zm-31.11 37.31c3.42,0.65 6.13,1.01 9.64,0.92 0.87,-0.02 2.74,0.08 2.88,-1.11 0.15,-1.21 -0.01,-3.49 -0.34,-4.66 -0.13,-0.35 -0.28,-0.7 -0.41,-1.04 -0.36,-1.32 -0.43,-7.42 -1.14,-7.55 -0.96,1 -4.02,3.06 -5.29,4.13 -1.93,1.64 -4.84,4.19 -5.32,6.81 -0.08,0.73 -0.03,1.75 -0.02,2.5zm39.5 1.54c5.19,1.64 8.04,0.2 13,-1.14 1.75,-0.47 1.66,-1.38 1.01,-2.94 -1.39,-3.32 -5.88,-6.34 -8.72,-8.44 -3.15,-2.33 -3.61,-6.81 -3.65,-3.03 -0.03,2.64 -1.96,7.93 -2.85,10.6 -0.52,1.62 0.04,2.27 0.41,3.89 0.14,0.63 0.28,0.7 0.8,1.06z"/>
   <path id="girl" class="fil0" d="M478.86 108.38c-0.61,0.68 -4.56,5.93 -2.99,6.56 1.6,0.44 4.98,-0.5 6.06,-1.9 0.88,-1.13 -0.81,-6.76 -3.07,-4.66zm24.51 0.62c2.74,3.27 3.43,5.03 1.63,9.16 -1.98,4.56 -4.7,9.04 -6.5,13.75 -1.18,3.08 -4.21,5.47 -4.2,8.67 0.2,2.56 1.37,6.22 2.04,8.83 0.6,2.31 0.87,4.06 1.35,6.33 0.76,3.43 2.26,7.02 4.23,9.92 0.95,1.4 1.08,2.62 1.6,4.14 0.45,1.19 0.32,1.69 -1.04,1.9 -0.13,0.01 -0.31,0.01 -0.44,0.02 -0.97,-0.06 -1.85,-0.41 -2.84,-0.52 -2.04,-0.4 -2.32,-1.8 -3.18,-3.5 -1.15,-2.26 -1.3,-1.95 -3.12,-3.38 -1.07,-0.85 -1.34,-1.64 -1.1,-2.99 0.38,-1.76 0.82,-1.71 0.14,-3.69 -0.72,-1.99 -1.56,-3.49 -2.53,-5.34 -0.5,-0.97 -0.66,-1.68 -0.91,-2.72 -1.09,1.59 -2.48,3.9 -2.92,5.79 -0.37,1.57 -0.44,2.68 -0.99,4.29 -0.1,0.28 -0.2,0.56 -0.3,0.84 -0.17,0.46 -0.3,0.85 -0.37,1.33 -0.13,1.44 0.54,3.46 -0.14,4.56 -0.86,1.12 -2.94,-0.55 -3.3,-1.54 -0.13,-0.41 -0.81,-2.47 -0.81,-2.73 0,-2.52 -0.68,-1.33 0.24,-4.38 0.42,-1.39 0.78,-2.95 0.37,-4.39 -0.45,-1.58 0.31,-1.52 1.25,-2.72 1,-1.26 1.27,-2.71 1.92,-4.14 0.26,-0.55 0.4,-0.9 0.59,-1.48 0.2,-0.91 0.33,-1.82 0.54,-2.74 0.22,-0.97 0.27,-1.39 0.22,-2.4 -0.15,-2.15 -0.09,-2.13 -1.75,-3.52 -0.28,-0.23 -1.63,-1.12 -1.64,-1.13 -1.22,-1.87 -0.91,-2.38 -3.52,-2.21 -1.43,0.1 -2.41,0.11 -3.85,0.05 -1.57,-0.07 -2.53,0.11 -4.05,0.35 -4.24,0.55 -8.07,-0.12 -11.41,-2.98 -4.06,-3.48 -3.81,-9.63 -1.99,-14.23 0.56,-1.42 1.25,-2.8 1.93,-4.17 1.64,-3.28 2.03,-5.13 2.21,-8.82 0.07,-3.34 -0.37,-6.67 -0.58,-10.01 -0.14,-2.16 -2.01,-1.93 -2.45,-3.01 -0.42,-1.04 -0.98,-4.01 -0.9,-5.13 0.21,-1.69 1.29,-3.43 2.18,-4.85 0.5,-0.79 1.03,-1.41 1.67,-2.09 0.69,-0.7 1.27,-1.3 1.89,-2.07 1.46,-1.87 1.41,-3.68 0.71,-5.82l-0.11 -0.35c-1.76,-4.8 -6.8,-14.94 0.26,-18.67 3.64,-1.77 6.88,-1.41 10.08,1.04 2.11,1.61 2.85,4.78 2.93,7.31 0.02,0.74 -0.06,1.24 -0.23,1.95 -0.4,1.44 -0.49,1.87 -0.69,3.39 -0.37,2.84 -1.12,5.6 -1.53,8.47 -0.74,6.37 0.38,3.68 1.47,7.94 0.64,2.48 4.49,5.1 5.51,8.48 1.44,4.79 0.5,2.53 2.93,3.26 1.74,0.51 1.25,5.04 0.69,5.65 -1.49,1.35 -2.23,-0.43 -0.02,3.65 1.67,3.06 3.24,5.79 5.3,8.61 2.35,-0.55 11.75,-3.66 13.53,-1.96z"/>
   <path id="letter_c" class="fil1" d="M263.06 219.22c181.87,-4.21 373.71,-1.36 555.54,-0.08 21.64,0.11 48.01,-0.76 64.97,14.89 9.84,9.08 13.31,9.2 26.52,10.18l1.85 0.14c3.81,0.28 7.3,0.6 11.09,1.15 10.23,1.77 10.75,3.06 3.29,-4.17 -15.54,-15.07 -36.98,-26.96 -58.4,-30.66 -16.36,-2.83 -40.32,-2.7 -57.55,-2.69 -172.05,-0.35 -365.89,-1.05 -537.94,-0.97 -24.31,0.36 -67.72,0.01 -127.36,-1.18 -27.03,-0.54 -57.02,3.01 -77.43,1.2 -18.39,-1.64 -29.63,-7.06 -35.97,-11.76 -18.54,-13.74 -6.83,-64.11 3.51,-81.55 16.88,-28.47 53.6,-53.88 84.5,-49.96 13.05,1.65 8.14,13.33 3.54,21.49 -4.55,8.04 -10.91,16.3 -16.69,23.55 11.5,-2.67 16.68,-6.02 29.47,-6.76 5.29,-0.31 5.88,-0.79 8.83,-5.58 6.76,-11.01 12.67,-32.38 -3.67,-37.83l-1.27 -0.43c-25.33,-8.44 -63.34,2.96 -84.42,18.43 -20.16,14.8 -33.67,30.86 -44.13,53.33 -5.67,12.2 -10.14,25.53 -11.05,36.43 -1.74,20.73 4.44,37.58 15.84,44.75 16.77,10.56 29.79,12.87 55.6,12.95 22.41,0.07 60.95,-3.86 83.98,-4.02 43.37,-0.19 63.84,0.21 107.35,-0.85z"/>
   <rect id="fil2" class="fil2" x="669.38" y="203.43" width="25.69" height="20.73"/>
   <path id="text" class="fil1" d="M686.62 234.4c-0.93,4.81 -2.89,9.19 -5.93,13.09 -3.14,4.02 -5.68,6 -7.54,6 -1.21,0 -1.82,-0.74 -1.82,-2.23 8.51,-10.51 5.92,-38.14 4.33,-51.66 -1.12,-9.51 -1.81,-19.18 -1.81,-28.76 0,-8.18 2.69,-16.6 6.28,-23.87 2.88,-5.83 8.77,-15.22 16.19,-15.22 1.87,0 4.48,1.92 7.68,5.86 4.05,4.99 6.01,11.82 6.01,20.39 0,11.82 -4.9,23.44 -16.29,33.09l-3.79 3.21c-1.56,1.32 -2.87,2.09 -3.8,2.37l-0.83 0c0.86,12.42 2.17,24.86 1.32,37.73zm-523.88 -38.43c0,1.4 -1.12,2.1 -3.35,2.1 -4.66,0 -7.32,-0.7 -7.96,-2.1l-18.99 -41.74 -2.09 0c-9.19,11.02 -12.43,27.75 -12.43,41.88 0,1.31 -2.42,1.96 -7.26,1.96 -3.72,0 -5.58,-1.26 -5.58,-3.77 0,-1.03 0.49,-3.03 1.46,-6.01 0.97,-2.97 2.41,-6.42 4.26,-10.33 4.76,-10.06 11.29,-19.44 19.27,-27.22l0.14 0c-2.7,-4.84 -4.75,-8.73 -6.15,-11.66 -1.39,-2.93 -2.09,-4.54 -2.09,-4.82 0,-1.67 2.42,-2.51 7.26,-2.51 2.33,0 4.09,0.53 5.16,1.67 0.23,0.24 0.62,1.03 1.26,2.24 0.65,1.2 1.43,2.75 2.31,4.61 3.91,8.25 7.82,16.55 11.65,24.85 4.21,9.1 7.43,16.43 9.71,21.92 2.27,5.48 3.42,8.47 3.42,8.93zm10.05 -33.37c0,-7.03 3.92,-14.24 8.1,-19.68 3.7,-4.82 9.92,-11.17 16.47,-11.17 1.12,0 2.83,1.56 5.17,4.61 1.56,2.04 3.21,4.74 3.21,7.4 0,2.23 -0.72,4.35 -2.24,6.28 -0.74,0.94 -2.39,2.9 -3.63,3.21l-0.83 -1.26c-1.91,-2.86 -2.99,-4.43 -3.21,-4.74 -2.28,-3.13 -4.57,-4.75 -6.99,-4.75 -2.93,0 -4.94,2.3 -5.72,4.88 -0.72,2.39 -0.98,4.76 -0.98,7.27 0,6.98 1.31,10.47 3.91,10.47 1.86,0 5.17,-1.13 9.92,-3.35 4.55,-2.14 7.67,-3.21 9.35,-3.21 0.18,0.18 0.41,0.39 0.56,0.69 0.31,0.64 0.8,1.37 1.39,2.24 0.61,0.89 1.01,1.7 1.33,2.3 1.15,2.14 0.14,4.87 -1.6,6.35 -1.66,1.41 -2.98,2.1 -3.92,2.1 0.1,0 -1,-1.01 -3.07,-3.21 -2.02,-2.16 -3.58,-3.35 -4.88,-3.35 -2.05,0 -4.19,0.81 -5.87,1.95 -2.42,1.65 -3.63,3.17 -3.63,4.47 0,3.03 1.51,6.05 2.94,8.65 2.01,3.69 4.46,5.59 7.53,5.59 3.63,0 6.94,-1.12 9.92,-3.35l0.55 0.83c-2.23,3.64 -4.67,6.7 -7.39,9.08 -2.31,2.02 -6.3,4.89 -9.5,4.89 -3.53,0 -7.46,-4.82 -11.59,-14.52 -3.58,-8.44 -5.3,-15.36 -5.3,-20.67zm13.68 -42.02c0,3.14 -1.53,4.75 -4.61,4.75 -3.25,0 -4.88,-1.63 -4.88,-4.89l0 -9.49c0,-2.98 1.63,-4.47 4.88,-4.47 3.08,0 4.61,1.64 4.61,4.89l0 9.21zm20.39 0c0,3.14 -1.63,4.75 -4.89,4.75 -2.98,0 -4.47,-1.63 -4.47,-4.89l0 -9.49c0,-2.98 1.49,-4.47 4.47,-4.47 3.26,0 4.89,1.64 4.89,4.89l0 9.21zm60.03 24.57c0,3.01 -0.29,6.26 -0.84,9.22 -0.14,0.78 -1.28,6.84 -2.09,6.84 -1.5,0 -6.28,-12.43 -6.84,-13.96 -0.76,-2.04 -1.66,-3.85 -2.73,-5.38 -1.06,-1.53 -1.97,-2.75 -2.86,-3.42 -1.43,-1.09 -4.98,-1.54 -10.47,-1.54 -5.68,0 -8.53,1.74 -8.52,5.17l0.14 53.89c0.01,1.39 -1.58,2.1 -4.74,2.1 -3.63,0 -5.45,-0.94 -5.45,-2.8l0 -59.19c0,-2.14 0.42,-3.21 1.26,-3.21l37.83 0c3.54,0 5.31,4.09 5.31,12.28zm67.29 39.51c0,2.05 -2.06,4.7 -6.14,7.96 -4.28,3.43 -7.12,5.17 -8.52,5.17 -1.67,0 -6.68,-4.83 -14.94,-14.52 -4.01,-4.72 -7.03,-8.64 -9.07,-11.66 -2.04,-3.02 -3.07,-5.28 -3.07,-6.77 0,-4.57 9.9,-15.36 12.98,-18.71 2.42,-2.63 13.29,-14.38 16.76,-14.38 1.94,0 4.19,0.89 5.3,2.51 2.45,3.58 3.01,7.24 2.44,11.45 -0.27,2.08 -1.13,4.04 -1.81,6.01 -0.32,0.92 -0.54,1.39 -0.63,1.39 0.25,-0.25 -3.08,-2.57 -3.35,-2.79 -2.16,-1.74 -6.29,-5.31 -9.07,-5.31 -2.83,0 -6.44,2.88 -8.24,4.89 -2.99,3.34 -4.33,6.14 -4.33,8.1 0,3.69 7.36,12.87 9.77,15.77 2.85,3.42 10.01,11.31 14.8,11.31 1.58,0 3.82,-0.93 6.7,-2.79 0.28,0 0.42,0.79 0.42,2.37zm-46.77 10.89c0,1.65 -1.81,2.52 -5.44,2.52 -3.07,0 -4.61,-0.89 -4.61,-2.66l0 -60.45c0,-1.86 1.68,-2.79 5.03,-2.79 3.35,0 5.02,0.89 5.02,2.65l0 60.73zm62.55 -61.29c0,-1.67 1.77,-2.51 5.3,-2.51 3.17,0 4.75,0.94 4.75,2.79l0 38.4 2.1 0 24.43 -24.72 0.14 0 0 -13.96c0,-1.67 1.63,-2.51 4.88,-2.51 3.45,0 5.17,1.03 5.17,3.07l0 60.73c0,1.67 -2.23,2.52 -6.7,2.52 -2.24,0 -3.35,-0.98 -3.35,-2.94l0 -41.18 -2.1 0 -24.43 24.85 -0.14 0 0 17.03c0,1.48 -1.77,2.24 -5.3,2.24 -3.17,0 -4.75,-0.75 -4.75,-2.24l0 -61.57zm130.54 60.59c0,1.75 -0.37,2.84 -1.12,3.08 -0.57,0.17 -6.45,0.3 -7.26,0 -1.31,-0.49 -1.57,-1.66 -1.53,-2.94l1.39 -49.7 -5.16 0c-3.07,35.09 -9.96,52.64 -20.67,52.64 -7.71,0 -12.3,-16.44 -13.82,-22.2 -0.73,-2.79 -1.54,-6.76 -2.37,-11.87 -0.83,-5.11 -1.82,-11.31 -2.93,-18.57l-4.89 0 1.4 49.98c0.05,1.85 -2.42,2.8 -7.26,2.8 -1.87,0 -2.8,-0.94 -2.8,-2.8l0 -59.75c0,-1.77 0.56,-2.65 1.68,-2.65l10.33 0c1.3,0 2.5,1.12 2.93,3.49l4.61 25.55c1.19,6.61 5.64,18.56 13.96,18.56 3.26,0 6.15,-1.61 8.66,-4.81 2.5,-3.21 4.61,-7.31 6,-12.36 0.55,-2.01 1.01,-5.15 1.61,-9.28 0.6,-4.14 1.27,-9.24 1.88,-15.29 0.4,-3.9 1.3,-5.86 2.79,-5.86l11.31 0c0.84,0 1.26,0.89 1.26,2.65l0 59.33zm111.67 0.84c0,1.58 -1.72,2.38 -5.16,2.38 -3.26,0 -4.89,-0.8 -4.89,-2.38l0 -53.33c0,-3.07 -1.72,-4.61 -5.16,-4.61l-17.6 0c-3.71,0 -5.58,1.5 -5.58,4.47l0 53.47c0,1.49 -1.81,2.24 -5.45,2.24 -3.07,0 -4.6,-0.8 -4.6,-2.38l0 -59.61c0,-1.77 0.37,-2.65 1.11,-2.65l46.08 0c0.83,0 1.25,1.26 1.25,3.76l0 58.64zm69.95 -0.42c0,1.86 -1.77,2.8 -5.3,2.8 -2.71,0 -4.36,-0.62 -5.03,-1.82l-8.24 -14.66 -2.09 0c-4.77,6.45 -14.69,12.43 -22.27,14.87 -2.74,0.88 -5.14,1.33 -7.19,1.33 -1.68,0 -3.19,-1.03 -4.54,-3.08 -1.35,-2.04 -2.02,-4.37 -2.02,-6.98 0,-2.23 0.79,-5.05 2.37,-8.44 3.38,-7.27 8.21,-14.36 13.4,-20.46 2.7,-3.16 5.12,-5.72 7.26,-7.67 -3.16,-4.84 -5.35,-8.99 -6.56,-12.43 -1.21,-3.44 -1.81,-5.4 -1.81,-5.86 0,-0.93 2.09,-1.4 6.28,-1.4 3.82,0 6.05,0.49 6.56,1.54l28.06 57.94c0.65,1.34 1.12,2.74 1.12,4.32zm-31.41 -40.76l-1.96 0c-1.11,1.11 -2.49,2.72 -4.12,4.81 -3.25,4.19 -6.17,9.04 -8.3,13.89 -1.02,2.33 -1.54,4.19 -1.54,5.59 0,4.75 2.75,7.12 8.24,7.12 6.76,0 14.37,-2.56 18.85,-7.82l0.13 0 -11.3 -23.59zm69.8 6.98c0,-9.22 -4.14,-15.59 -12.42,-19.13l-1.68 0c-2.42,6.05 -3.63,11.77 -3.63,17.17 0,1.12 0.65,11.45 1.96,31l1.25 0c5.08,0 8.83,-3.98 11.43,-11.87 2,-6.07 3.09,-11.77 3.09,-17.17zm58.78 1.25c0,5.78 -1.91,12.8 -6,20.95 -4.65,9.25 -9.31,13.82 -13.68,13.82 -1.96,0 -5.2,-2.63 -9.64,-7.96 -5.24,-6.3 -7.82,-14.15 -7.82,-23.46 0,-2.23 0.59,-5.05 1.75,-8.44 1.16,-3.4 2.74,-7.26 4.82,-11.52 1.65,-3.39 7.31,-14.38 11.72,-14.38 1.68,0 4.38,1.86 8.1,5.58 7.17,7.17 10.75,15.64 10.75,25.41zm-7.54 10.05c0,-9.3 -2.2,-16.7 -6.56,-22.19 -3.17,-4 -6.61,-6.01 -10.33,-6.01 -3.91,0 -5.86,5.17 -5.86,15.5 0,8.75 3.02,15.78 9.07,21.08 2.23,1.96 4.24,2.94 6,2.94 5.12,0 7.68,-3.78 7.68,-11.32zm88.24 22.06c0,1.76 -0.36,2.84 -1.12,3.08 -0.57,0.18 -6.44,0.3 -7.26,0 -1.31,-0.49 -1.57,-1.66 -1.53,-2.94l1.39 -49.7 -5.16 0c-3.08,35.09 -9.96,52.64 -20.67,52.64 -7.71,0 -12.3,-16.43 -13.82,-22.2 -0.73,-2.79 -1.54,-6.75 -2.37,-11.87 -0.84,-5.12 -1.82,-11.31 -2.93,-18.57l-4.89 0 1.4 49.98c0.05,1.86 -2.42,2.8 -7.26,2.8 -1.87,0 -2.8,-0.94 -2.8,-2.8l0 -59.75c0,-1.77 0.56,-2.65 1.68,-2.65l10.33 0c1.3,0 2.51,1.11 2.93,3.49l4.61 25.55c1.19,6.61 5.64,18.56 13.96,18.56 3.26,0 6.15,-1.6 8.66,-4.81 2.51,-3.21 4.61,-7.31 6,-12.36 0.56,-2.02 1,-5.14 1.61,-9.28 0.6,-4.14 1.26,-9.24 1.88,-15.29 0.4,-3.9 1.3,-5.86 2.79,-5.86l11.31 0c0.84,0 1.26,0.89 1.26,2.65l0 59.33z"/>
   <path id="end" class="fil3" d="M929.01 37.59c-13.87,30.27 -20.7,61.92 -5.53,93.1 7.86,15.84 15.22,27.3 13.05,45.89 -2,14.29 -9.13,20.81 -23.02,24.38 -13.18,3.38 -29.29,1.22 -41.26,-5.02 -6.54,-3.75 -10.9,-7.39 -15.93,-12.98 -10.38,-12.91 6.16,-14.94 15.76,-18.23 12.92,-4.42 19.51,-8.81 31.14,-14.88 4.17,-2.17 5.11,-2.14 3.02,2.61 -1.56,3.54 -6.67,5.9 -9.9,7.86 -10.26,6.23 -17.6,8.74 -28.25,13.34 -8.67,3.76 -10.02,4.03 -1.37,9.54 1.01,0.65 1.87,1.14 2.93,1.69 19.21,6.2 42.64,1.73 51.77,-18.07 1.36,-3.18 2.26,-6.35 3.15,-9.68 2.07,-15.08 -13.16,-35.63 -16.78,-56.43 -5.48,-31.4 -3.91,-63.01 12.77,-90.62 2.3,-3.81 5.34,-4.56 9.56,-5.65 3.97,-1.04 20.09,-5.08 24.27,-4.35 1.9,0.33 0.74,0.5 -0.69,2.58 -4.95,7.21 -11.03,13.76 -16.16,21.14 -3.08,4.52 -5.83,9.02 -8.53,13.78z"/>
  </g>
 </g>
</svg>
