<svg xmlns="http://www.w3.org/2000/svg" version="1.1" viewBox="0 0 5384.26 1821.32" xmlns:xlink="http://www.w3.org/1999/xlink">
 <defs>
  <style type="text/css">
   <![CDATA[
    .str0 {stroke:#FFF1B2;stroke-width:20;stroke-miterlimit:22.9256}
    .fil6 {fill:none}
    .fil0 {fill:#FEFEFE;fill-rule:nonzero}
    .fil2 {fill:url(#id0)}
    .fil3 {fill:url(#id1)}
    .fil5 {fill:url(#id2);fill-rule:nonzero}
    .fil1 {fill:url(#id3);fill-rule:nonzero}
    .fil4 {fill:url(#id4);fill-rule:nonzero}
    .fil7 {fill:url(#id5);fill-rule:nonzero}
   ]]>
  </style>
  <linearGradient id="id0" gradientUnits="userSpaceOnUse" x1="2935.49" y1="466.69" x2="3285.75" y2="466.69">
   <stop offset="0" style="stop-opacity:1; stop-color:#FEFEFE"/>
   <stop offset="1" style="stop-opacity:1; stop-color:white"/>
  </linearGradient>
  <linearGradient id="id1" gradientUnits="userSpaceOnUse" xlink:href="#id0" x1="2560.82" y1="538.2" x2="2806.69" y2="538.2">
  </linearGradient>
  <linearGradient id="id2" gradientUnits="userSpaceOnUse" xlink:href="#id0" x1="861.2" y1="873.38" x2="4427.38" y2="873.38">
  </linearGradient>
  <linearGradient id="id3" gradientUnits="userSpaceOnUse" x1="618.31" y1="1460.44" x2="4715.38" y2="1460.44">
   <stop offset="0" style="stop-opacity:1; stop-color:#FFF1B2"/>
   <stop offset="1" style="stop-opacity:1; stop-color:white"/>
  </linearGradient>
  <linearGradient id="id4" gradientUnits="userSpaceOnUse" xlink:href="#id0" x1="351.3" y1="733.25" x2="4870.9" y2="733.25">
  </linearGradient>
  <linearGradient id="id5" gradientUnits="userSpaceOnUse" xlink:href="#id0" x1="4516.08" y1="469.6" x2="4954.27" y2="498.8">
  </linearGradient>
 </defs>
 <g id="Слой_x0020_1">
  <metadata id="CorelCorpID_0Corel-Layer"/>
  <path class="fil0" d="M4859.38 182.39c-67.3,146.89 -100.45,300.46 -26.85,451.77 38.13,76.88 73.84,132.48 63.32,222.67 -9.68,69.39 -44.32,101.02 -111.69,118.33 -63.96,16.41 -142.15,5.93 -200.25,-24.36 -31.72,-18.18 -52.89,-35.86 -77.29,-62.98 -50.35,-62.63 29.91,-72.5 76.5,-88.46 62.68,-21.45 94.64,-42.74 151.08,-72.2 20.26,-10.56 24.82,-10.41 14.68,12.64 -7.58,17.2 -32.39,28.64 -48.06,38.16 -49.79,30.22 -85.38,42.38 -137.08,64.74 -42.06,18.21 -48.59,19.54 -6.64,46.26 4.92,3.15 9.09,5.56 14.24,8.21 93.21,30.1 206.91,8.42 251.19,-87.69 6.58,-15.44 10.98,-30.81 15.31,-46.96 10.03,-73.16 -63.86,-172.87 -81.47,-273.81 -26.58,-152.41 -18.96,-305.78 61.98,-439.78 11.14,-18.45 25.94,-22.09 46.39,-27.41 19.26,-5.01 97.48,-24.61 117.77,-21.1 9.24,1.6 3.6,2.43 -3.32,12.52 -24.06,34.98 -53.55,66.78 -78.42,102.57 -14.95,21.96 -28.3,43.78 -41.39,66.88z"/>
  <path class="fil1" d="M1409.81 1233.57c0,71.15 -183.63,205.63 -184.25,317.18 -0.07,14.14 31.19,90.22 -11.24,63.14 -46.08,-29.41 -12.02,-107.44 9.27,-143 52.24,-87.27 211.79,-244.11 131.95,-244.11 -84.43,0 -301.24,211.57 -342.94,269.17 -3.26,4.5 -39.54,13.76 -1.28,-28.5 28.25,-31.2 173.06,-206.44 160.97,-244 -20.65,-64.17 -234.04,150.01 -244.65,161.37 -24.83,26.59 -112.04,138.03 -128.25,131.67 -9.96,-3.9 -2.55,-17.36 2.72,-22.96 34.53,-36.69 189.81,-237.03 161.24,-275.6 -47.33,-63.91 -367.85,53.94 -343.76,-102.56 7.91,-51.35 26.77,37.99 37.72,48.12 78.71,72.85 501.42,-132 258.36,211.47 23.71,-23.54 219.49,-230.21 279.45,-178.63 42.21,36.3 -76.5,165.3 -86.14,177.81 30.71,-28.89 261.96,-234.07 298.26,-153.88 1.7,3.78 2.57,8.22 2.57,13.31zm-278.72 134.23l0 0c1.31,1.54 3.61,1.73 5.17,0.46l-5.17 -0.46zm308.01 140.19l-35.39 -8.29c-98.73,94.48 -155.4,5.4 -25.6,-84.37 7.98,-5.52 45.78,-24.78 44.13,-1.95 55.57,-19.43 10.52,55.44 -3.15,70.74 24.92,22.95 108.9,-25.01 119.78,-41.32 14.53,-21.75 19.57,-42.27 46.9,-40.06 14.96,1.21 4.17,17.62 -0.36,24.47 152.06,-60.8 110.73,58.06 -7.47,83.94 -73.12,16 -23.69,-66.25 -5.12,-27.23 18.96,39.86 126.19,-64.19 46.42,-47.99 -65.8,13.37 -83.32,48.07 -125.2,102.67l-128.49 168.15c-163.03,208.32 -254.12,97.19 -105.47,-53.77 53.68,-54.52 115.3,-102.59 179.02,-144.99zm-26.1 -89.73c-41.19,0 -123.09,129.67 -43.61,85.5l24.62 -17.33c-9.5,-21.93 -1.01,-54.11 18.99,-68.17zm17.94 18.82c0,-16.4 -25.53,2.61 -19.81,32.94 7.98,-8.6 19.81,-21.18 19.81,-32.94zm108.44 62.24c-0.56,-0.72 -0.82,-1.6 -0.78,-2.46l0.78 2.46zm-28.93 -15.5c-309.62,176.82 -335.06,352.02 -255.32,304.89 76.32,-45.1 198.96,-225.82 255.32,-304.89zm367.93 6.3c-26.1,11.77 -70.29,31.13 -94.37,9.59 -98.59,94.32 -155.2,5.22 -25.62,-84.38 7.97,-5.51 45.75,-24.53 44.15,-1.93 56.75,-17.63 10.32,55.64 -3.16,70.72 37.29,34.33 159.29,-70.43 171.36,-53.91 11.48,15.72 -62.48,84.04 -21.11,57.58 0.14,-0.09 129.35,-96.68 118.74,-53.69 -7.92,32.09 -91.73,109.85 58.35,43.42 11.61,-5.14 37.92,-63.21 55.72,-44.37 11.95,12.64 -50.08,47.39 -21.03,62.69 28.96,15.26 95.46,-74.22 115.92,-62.99 21.12,11.6 -76.5,122.22 101.4,36.09 3.59,-1.75 105.22,-71.14 84.04,-23.89 -16.08,35.89 -89.74,87.5 34.7,6.31 7.03,-4.58 78.22,-52.72 60.85,-9.51 -4.01,9.95 -56.2,67.31 -18.61,51.42 6.31,-2.67 122.94,-106.33 111.33,-59.17 -8.21,33.35 -86.78,101.41 42.25,49.86 19.15,-47.55 132.88,-152.04 116.87,-92.16 -4.23,15.84 -30.5,25.59 -42.45,37.62 51.25,-26.85 48.33,36.97 22.69,62.29 17.35,3.51 40.26,-3.27 54.9,-12.76 8.78,-48.32 137.5,-129.81 137.5,-70.23 0,41.37 -81.43,53.39 -41.56,18.47 61.76,-54.08 -112.66,21.89 -56.19,67.92 40.99,33.4 150.63,-47.04 152.53,-8.39 1.6,32.33 58.58,-11.34 69.23,-19.22 -107.43,-38.71 50.28,-116.27 38.69,-27.68l-3.13 12.73c9.73,-4.92 25.19,-0.75 19.69,11.36 -19.67,43.38 6.6,46.79 41.24,33.19 8.34,-3.28 63.1,-34.89 63.1,-14.89 0,12.19 -113.15,57.85 -134.84,35.21 -11.16,-11.65 -11.69,-29.38 -4.21,-42.77 -24.07,21.76 -114.32,82.35 -124.82,23.06 -34.78,13.32 -145.98,64.35 -157.35,-1.24 -18.79,10.9 -48.49,16.32 -69.17,8.71 -19.76,15.85 -83.73,40.66 -86.22,-3.01 -53.55,22.13 -126.41,52.06 -82.32,-38.77 -14.12,10.72 -101.27,86.58 -120.25,53.34 -7.45,-13.03 16,-44.42 23.74,-56.94 -8.54,4.64 -127.99,94.71 -127.99,53.35 0,-16.7 21.96,-35.03 32.25,-46.04 -6.36,3.97 -204.49,113.08 -181.93,17.23 0.52,-2.2 1.22,-4.35 2.09,-6.42 -19.26,13.68 -114.74,77.36 -114.74,18.81 -51.93,20.77 -152.51,66.27 -100.68,-37.34 -0.1,0.05 -150.25,107.33 -127.41,46.88l30.87 -39.16c-13.56,7.91 -30.27,16.36 -45.04,23.01zm-85.1 -71.86c-40.73,0 -123.07,129.61 -43.6,85.5l24.62 -17.33c-9.64,-22.29 -0.89,-54.11 18.98,-68.17zm17.97 18.82c0,-16.21 -25.43,2.79 -19.82,32.94 7.68,-8.26 19.82,-21.32 19.82,-32.94zm913.61 41.76l-4.82 11.21c-3.95,21.32 30.23,12.54 38.49,6.78 -14.99,-10.51 -16.92,-32.25 -9.43,-47.97l-24.24 29.98zm47.61 6.36c47.74,-43 -23.35,-44.81 -7.52,-6.34l7.52 6.34zm350.22 -38.2c27.12,-53.68 -65.64,-20.11 -3,6.35l3 -6.35zm321.05 50.68c-35.77,56.66 -59.47,22.24 -7.73,-30.45 -0.03,0.01 -90.16,52.74 -73.71,19.45l91.44 -48.23c35.68,-22.73 38.34,-1.26 16.08,26.21l58.38 1.21c22.81,-43.68 77.96,-69.71 37.97,-6.98 -52.33,82.09 62.59,26.84 88.92,6.11l6.02 -4.53c-114.47,-18.51 146.22,-117.49 117.84,-57.18 -7.89,16.76 -55.9,28.61 -42.48,0.98l-67.2 27.78c1.84,8.26 53.17,-11.22 39.67,22.53 -0.57,1.42 -86.63,34.15 -29.64,47.5 41.18,9.64 137.24,-48.22 121.2,-15.95 -4.97,9.98 -182.94,80.35 -171.16,12.24 -27.92,11.41 -140.66,62.06 -108.31,-17.03l-66.81 1.99 -10.48 14.35zm225.52 -65.64l0 0zm486.83 70.63c-29.79,11.85 -127.37,50.12 -98.14,-21.33l-66.82 1.99c-8.81,9.99 -28.39,56.87 -46.63,38.99 -14.67,-14.38 19.19,-45.68 28.43,-55.09 -0.02,0.01 -90.07,52.45 -73.71,19.45l91.44 -48.23c36.07,-22.99 38.61,-1.54 16.08,26.21l58.38 1.21c21.75,-42.79 78.47,-70.52 37.96,-6.98 -51.95,81.51 60.37,25.77 65.39,18.57 72.63,-104.07 204.15,-85.03 129.27,-27.9 -24.87,18.97 -29.2,1.71 -12.26,-20.81 18.56,-24.65 -95.42,22.16 -95.42,63.77 0,35.37 77.92,-22.31 84.13,-19.98 22.39,8.41 -39.78,56.02 80.16,8.06 10.61,-55.12 176.78,-134.58 177.95,-73.16 0.34,17.6 -53.21,50.71 -53.21,21.9 0,-10.1 39.5,-32.56 0.94,-22.73 -93.79,23.91 -128.97,137.48 -12.42,51.66 15.71,-11.57 32.05,-8.32 17.46,9.51l-65.07 81.35c6.99,-1.12 223.92,-25.96 184.14,20.84 -15.58,18.34 -176.83,-9.71 -205.66,7.21 -26.52,15.56 -190.87,289.43 -262.72,235.31 -56.56,-42.59 32.24,-183.77 195.17,-240.75 67.94,-23.76 53.66,0.38 95.67,-59.77l10.18 -15.84c-17.41,10.11 -76.93,37.15 -82.43,0.86 -13.62,5.77 -114.4,52.95 -107.27,10.99 -18.35,10.11 -103.17,46.08 -90.99,-5.31zm218.32 78.62c-227.3,48.27 -250.46,224.8 -199.88,211.33 47.19,-12.57 163.87,-165.98 199.88,-211.33zm340.96 -99.08c0,20.71 -82.81,32.74 -99.81,17.5 -98.87,94.44 -155.35,5.28 -25.6,-84.38 8.04,-5.56 45.77,-24.56 44.14,-1.95 53.5,-18.71 16.43,48.8 -3.16,70.74 21.65,20.05 84.43,-23.4 84.43,-1.91zm-90.53 -63.95c-46.03,0 -130.04,145.31 -29.62,76.63 3.6,-2.61 7.15,-5.43 10.63,-8.46 -9.59,-22.2 -0.89,-54.18 18.99,-68.17zm17.97 18.82c0,-16.55 -25.52,2.44 -19.83,32.95 7.68,-8.25 19.83,-21.33 19.83,-32.95zm-20.74 26.11c0.08,1.98 -1.4,3.68 -3.37,3.87l-0.02 -0.1 3.39 -3.77z"/>
  <path class="fil2" d="M3133.22 351.91c-0.69,-8.26 0.49,-8 3.19,-13.97 1.94,-4.3 5.27,-3.23 6.65,-10.25 0.76,-3.83 0.78,-12.36 -0.57,-15.62 -6.18,-0.74 -4.96,4.34 -4.97,-17.96 -0.01,-10.3 0,-13.96 -5.51,-19.82 -1.48,-1.57 -1.55,-1.85 -2.73,-3.29 -1.95,-2.42 -4.17,-4.05 -5.83,-6.75 -4.19,-6.83 -18.23,-6.91 -25.52,-6.89 -9.18,0.02 -9.38,4.08 -17.63,6.15 -20.45,5.15 -9.99,38.91 -10.68,48.36 -5.48,4.59 -3.84,8.99 -0.61,15.41 1.09,2.18 2.32,5.73 3.34,7.53 1.04,1.86 5.63,3.67 7.74,1.7 2.71,15.46 7.82,32.12 -8.84,39.72 -29.84,13.61 -40.87,8.84 -62.1,38.48 -4.56,6.36 -8.89,12.85 -13.35,19.26 -6.94,9.66 -12.54,17.72 -17.74,28.56 -6.45,14.01 -22.48,23.13 -31.17,43.3 -8.93,28.43 -5.78,60.35 -10.18,89.49 -1.61,10.69 -1.56,18.34 -0.24,28.89 1.17,7.63 -1.14,7.52 5.33,10.4 4.73,2.11 8.8,5.59 10.4,6.13 2.95,0.99 3.8,0.16 5.27,2.45 1.66,2.61 1.14,3.06 3.57,4.6 8.49,5.33 17.95,3 8.88,-6.66 2.53,-1.36 5.81,-2.78 2.34,-6.24 -3.05,-3.05 -8.42,2.31 -5.5,-15.36 0.92,-5.53 3.81,-8.01 5.25,-1.6 2.11,9.3 13.72,24.22 18.04,14.18 1.08,-3.8 -3.43,-4.01 -5.45,-9.95 -0.39,-1.13 -2.84,-9.89 0.1,-8.7 1.72,0.69 5.22,2.65 7.32,3.63 8.88,4.13 8.75,5.03 18.93,7.47 7.21,1.74 14.12,4.23 20.69,7.73 -5.91,2.3 -14.85,0.44 -17.56,11.07 -2.76,10.83 5.32,24.81 17.32,27.5 8.03,0.74 16.77,-5.27 30.56,-5 15.71,0.5 17.61,1.83 33.65,-1.37 4.75,7.93 -6.09,7.01 16.32,7.44 10.94,0.22 22.58,1.6 32.09,-4.45 4.17,-4.17 -0.14,-9.7 7.06,-1.97 3.56,4.02 5.57,18.56 17.85,8.93 8.04,-8.67 -0.18,-21.68 3.1,-28.01 2.85,-2.61 4.19,-2.31 7.67,-6.26 7.96,-9.08 5.44,-5.15 16.06,-9.33 6.99,-2.74 10.43,-3.96 17.63,-5.83 6.64,-1.72 8.72,-3.12 14.46,-6.78 1.64,-1.03 3.26,-2.07 4.92,-3.08 -3.15,5.55 -5.88,5.97 -7.66,8.84 -1.84,2.97 4.99,3.89 7.09,3.4 8.41,-2.59 14.06,-13.47 16.57,-13.71 2.94,1.04 -0.01,19.14 -0.87,21.78 -2.29,5.66 -13.37,9.29 -10.11,15.51 2.22,4.27 11.12,-0.56 14.32,-1.82 15.42,-5.13 14,-0.02 22.86,-17.02 5.53,-10.62 3.33,-15.52 3.81,-26.76 0.2,-3.97 1.09,-5.99 2.87,-9.5 2.02,-3.73 2.37,-11.49 2.8,-15.89 0.89,-8.71 1.4,-17.16 1.29,-25.93l-0.02 -2.07c-2.18,-48.58 -14.59,-51.05 -41.5,-87.11 -8.33,-11.17 -12.17,-16.22 -19.4,-28.81 -4.41,-7.67 -8.52,-14.74 -13.53,-22.08 -7.15,-9.8 -13.81,-16.62 -24.46,-22.6 -15.55,-8.1 -39.12,-10.03 -50.95,-23.03 -2.07,-4.32 -2.36,-11.67 -2.66,-16.44zm-150.97 181.03c16.63,3.18 29.78,4.89 46.79,4.48 4.2,-0.09 13.3,0.41 13.99,-5.38 0.71,-5.89 -0.05,-16.95 -1.68,-22.65 -0.62,-1.67 -1.33,-3.37 -1.99,-5.03 -1.74,-6.4 -2.08,-35.98 -5.51,-36.65 -4.65,4.87 -19.52,14.86 -25.66,20.07 -9.38,7.96 -23.49,20.33 -25.85,33.04 -0.35,3.53 -0.12,8.51 -0.09,12.12zm191.69 7.47c25.16,7.98 38.99,0.99 63.07,-5.52 8.48,-2.3 8.06,-6.71 4.9,-14.25 -6.74,-16.11 -28.54,-30.77 -42.3,-40.96 -15.29,-11.32 -17.52,-33.05 -17.71,-14.71 -0.13,12.82 -9.53,38.46 -13.84,51.43 -2.54,7.85 0.18,11 1.97,18.9 0.7,3.03 1.36,3.35 3.91,5.11z"/>
  <path class="fil3" d="M2674.99 525.92c-2.96,3.28 -22.12,28.78 -14.49,31.84 7.76,2.13 24.17,-2.47 29.42,-9.25 4.24,-5.48 -3.95,-32.79 -14.93,-22.59zm118.93 2.98c13.29,15.87 16.65,24.44 7.94,44.47 -9.62,22.13 -22.82,43.85 -31.58,66.75 -5.7,14.92 -20.4,26.51 -20.36,42.04 0.97,12.44 6.66,30.21 9.89,42.85 2.91,11.18 4.25,19.71 6.54,30.74 3.71,16.61 10.96,34.04 20.54,48.1 4.64,6.81 5.23,12.71 7.78,20.12 2.16,5.77 1.57,8.2 -5.07,9.18 -0.62,0.09 -1.48,0.1 -2.13,0.14 -4.69,-0.31 -8.96,-1.98 -13.78,-2.56 -9.87,-1.91 -11.22,-8.74 -15.41,-16.97 -5.59,-10.98 -6.32,-9.43 -15.13,-16.42 -5.19,-4.1 -6.5,-7.95 -5.35,-14.5 1.82,-8.54 3.99,-8.29 0.69,-17.91 -3.54,-9.63 -7.56,-16.93 -12.27,-25.91 -2.45,-4.69 -3.24,-8.15 -4.43,-13.2 -5.32,7.75 -12.05,18.96 -14.19,28.11 -1.78,7.62 -2.15,13.02 -4.82,20.82 -0.47,1.36 -0.95,2.71 -1.43,4.06 -0.82,2.23 -1.44,4.11 -1.78,6.47 -0.64,6.98 2.6,16.78 -0.67,22.15 -4.18,5.42 -14.31,-2.71 -16.02,-7.5 -0.67,-1.98 -3.96,-12.01 -3.94,-13.24 -0.01,-12.22 -3.33,-6.46 1.14,-21.26 2.05,-6.76 3.79,-14.33 1.81,-21.3 -2.18,-7.68 1.48,-7.4 6.05,-13.21 4.85,-6.13 6.19,-13.16 9.32,-20.09 1.26,-2.66 1.97,-4.37 2.88,-7.18 0.96,-4.41 1.62,-8.84 2.61,-13.27 1.09,-4.74 1.3,-6.76 1.08,-11.66 -0.76,-10.42 -0.43,-10.35 -8.48,-17.07 -1.36,-1.14 -7.94,-5.44 -7.98,-5.49 -5.93,-9.06 -4.44,-11.55 -17.1,-10.73 -6.94,0.46 -11.66,0.54 -18.65,0.24 -7.65,-0.33 -12.27,0.54 -19.68,1.69 -20.57,2.67 -39.12,-0.55 -55.33,-14.45 -19.74,-16.9 -18.51,-46.74 -9.68,-69.04 2.74,-6.91 6.06,-13.58 9.35,-20.23 7.96,-15.91 9.88,-24.94 10.72,-42.81 0.36,-16.23 -1.77,-32.36 -2.82,-48.57 -0.67,-10.49 -9.74,-9.35 -11.87,-14.64 -2.03,-5.03 -4.73,-19.46 -4.37,-24.85 1.01,-8.2 6.28,-16.66 10.6,-23.58 2.42,-3.82 4.98,-6.83 8.08,-10.1 3.34,-3.41 6.17,-6.33 9.19,-10.08 7.09,-9.04 6.83,-17.86 3.46,-28.24l-0.55 -1.7c-8.55,-23.27 -32.99,-72.5 1.27,-90.6 17.63,-8.56 33.38,-6.82 48.88,5.05 10.24,7.84 13.86,23.24 14.25,35.51 0.11,3.56 -0.28,6.02 -1.12,9.46 -1.93,6.97 -2.4,9.05 -3.36,16.43 -1.8,13.8 -5.44,27.18 -7.42,41.11 -3.57,30.92 1.84,17.83 7.15,38.52 3.08,12.02 21.79,24.75 26.72,41.16 6.97,23.23 2.44,12.29 14.21,15.79 8.43,2.52 6.06,24.48 3.34,27.46 -7.21,6.52 -10.78,-2.1 -0.06,17.7 8.07,14.84 15.7,28.07 25.69,41.77 11.4,-2.67 57.04,-17.77 65.65,-9.53z"/>
  <path class="fil4" d="M1627.81 1063.76c644.03,-14.88 1313.83,-11.56 1971.71,-6.26l0 -49.89c-643.27,-1.62 -1313.27,-3.38 -1926.22,-3.09 -117.98,1.75 -328.61,0.04 -618.03,-5.73 -131.19,-2.63 -276.68,14.63 -375.75,5.8 -89.23,-7.95 -143.76,-34.25 -174.52,-57.05 -89.94,-66.68 -33.13,-311.06 17.06,-395.72 81.88,-138.13 260.06,-261.43 410,-242.42 63.34,8.01 39.53,64.7 17.17,104.25 -22.07,39.04 -52.94,79.11 -80.97,114.33 55.8,-12.97 80.92,-29.25 142.99,-32.85 25.68,-1.49 28.55,-3.81 42.84,-27.07 32.82,-53.43 61.51,-157.14 -17.78,-183.57l-6.19 -2.06c-122.9,-40.97 -307.39,14.35 -409.65,89.42 -97.81,71.8 -163.39,149.76 -214.12,258.76 -27.54,59.21 -49.2,123.93 -53.62,176.78 -8.44,100.63 21.54,182.37 76.85,217.19 81.39,51.21 144.57,62.45 269.81,62.82 108.73,0.34 295.76,-18.72 407.53,-19.54 210.45,-0.88 309.78,1.04 520.89,-4.1zm2096.38 -5.25c201.52,1.69 401.67,3.46 599.4,4.85 105.03,0.56 232.96,-3.65 315.27,72.28 47.78,44.05 64.58,44.62 128.71,49.38l8.99 0.67c18.45,1.4 35.41,2.91 53.76,5.6 49.69,8.59 52.18,14.86 15.99,-20.22 -75.4,-73.13 -179.44,-130.85 -283.39,-148.81 -79.41,-13.72 -195.67,-13.1 -279.27,-13.05 -182.18,-0.37 -369.4,-0.82 -559.46,-1.29l0 50.59z"/>
  <path class="fil5" d="M3683.17 1137.41c-4.54,23.33 -14.02,44.61 -28.79,63.54 -15.23,19.5 -27.55,29.13 -36.59,29.13 -5.87,0 -8.8,-3.62 -8.8,-10.84 41.27,-50.98 28.71,-185.09 21,-250.67 -5.43,-46.16 -8.81,-93.07 -8.81,-139.56 0,-39.69 13.07,-80.56 30.49,-115.85 13.96,-28.28 42.57,-73.85 78.58,-73.85 9.04,0 21.7,9.3 37.27,28.46 19.64,24.18 29.13,57.35 29.13,98.91 0,57.36 -23.77,113.77 -79.04,160.56l-18.41 15.59c-7.56,6.4 -13.89,10.16 -18.4,11.51l-4.07 0c4.19,60.25 10.56,120.62 6.44,183.07zm-2542.17 -186.46c0,6.78 -5.42,10.17 -16.26,10.17 -22.58,0 -35.52,-3.36 -38.62,-10.17l-92.13 -202.56 -10.17 0c-44.56,53.48 -60.29,134.66 -60.29,203.24 0,6.32 -11.75,9.49 -35.23,9.49 -18.07,0 -27.1,-6.1 -27.1,-18.29 0,-4.98 2.4,-14.72 7.11,-29.14 4.71,-14.42 11.7,-31.17 20.67,-50.13 23.1,-48.82 54.79,-94.32 93.49,-132.11l0.67 0c-13.09,-23.49 -23.03,-42.34 -29.8,-56.57 -6.78,-14.23 -10.16,-22.02 -10.16,-23.37 0,-8.13 11.74,-12.2 35.22,-12.2 11.3,0 19.87,2.56 25.07,8.13 1.08,1.16 2.96,5 6.1,10.84 3.13,5.84 6.91,13.36 11.18,22.36 19.01,40.07 37.98,80.32 56.57,120.59 20.39,44.19 36.04,79.75 47.08,106.36 11.04,26.62 16.6,41.11 16.6,43.36zm48.78 -161.91c0,-34.16 19.02,-69.14 39.29,-95.53 17.95,-23.36 48.16,-54.2 79.95,-54.2 5.41,0 13.7,7.56 25.06,22.36 7.6,9.89 15.58,23.02 15.58,35.91 0,10.83 -3.48,21.15 -10.84,30.48 -3.6,4.59 -11.62,14.08 -17.61,15.59l-4.06 -6.1c-9.24,-13.87 -14.48,-21.52 -15.59,-23.04 -11.05,-15.16 -22.13,-23.03 -33.87,-23.03 -14.25,0 -23.98,11.17 -27.78,23.71 -3.49,11.55 -4.74,23.08 -4.74,35.23 0,33.87 6.32,50.81 18.97,50.81 9.03,0 25.09,-5.46 48.1,-16.26 22.1,-10.37 37.26,-15.58 45.39,-15.58 0.9,0.9 1.98,1.93 2.71,3.39 1.54,3.07 3.9,6.62 6.77,10.83 2.95,4.32 4.89,8.28 6.44,11.18 5.57,10.39 0.7,23.62 -7.79,30.83 -8.03,6.83 -14.45,10.16 -18.97,10.16 0.45,0 -4.89,-4.89 -14.9,-15.58 -9.82,-10.49 -17.39,-16.26 -23.72,-16.26 -9.95,0 -20.33,3.96 -28.45,9.49 -11.77,8.01 -17.61,15.35 -17.61,21.68 0,14.7 7.33,29.38 14.22,42 9.76,17.87 21.68,27.1 36.59,27.1 17.61,0 33.65,-5.42 48.1,-16.26l2.71 4.06c-10.84,17.62 -22.69,32.48 -35.91,44.04 -11.18,9.78 -30.55,23.71 -46.07,23.71 -17.16,0 -36.21,-23.39 -56.23,-70.46 -17.41,-40.95 -25.74,-74.52 -25.74,-100.26zm66.39 -203.92c0,15.24 -7.45,23.03 -22.35,23.03 -15.81,0 -23.72,-7.91 -23.72,-23.71l0 -46.07c0,-14.45 7.91,-21.68 23.72,-21.68 14.9,0 22.35,7.96 22.35,23.71l0 44.72zm98.91 0c0,15.24 -7.9,23.03 -23.71,23.03 -14.45,0 -21.68,-7.91 -21.68,-23.71l0 -46.07c0,-14.45 7.23,-21.68 21.68,-21.68 15.81,0 23.71,7.96 23.71,23.71l0 44.72zm291.32 119.23c0,14.62 -1.4,30.37 -4.06,44.71 -0.71,3.79 -6.21,33.2 -10.16,33.2 -7.25,0 -30.44,-60.29 -33.2,-67.75 -3.66,-9.88 -8.05,-18.66 -13.21,-26.08 -5.17,-7.42 -9.59,-13.34 -13.89,-16.6 -6.96,-5.28 -24.16,-7.45 -50.81,-7.45 -27.55,0 -41.37,8.41 -41.33,25.07l0.68 261.5c0.02,6.72 -7.68,10.17 -23.03,10.17 -17.62,0 -26.43,-4.52 -26.43,-13.55l0 -287.25c0,-10.4 2.04,-15.59 6.1,-15.59l183.6 0c17.16,0 25.74,19.88 25.74,59.62zm326.55 191.73c0,9.94 -10.01,22.78 -29.81,38.62 -20.79,16.62 -34.55,25.06 -41.33,25.06 -8.13,0 -32.44,-23.42 -72.49,-70.46 -19.51,-22.9 -34.13,-41.92 -44.04,-56.57 -9.9,-14.65 -14.9,-25.63 -14.9,-32.86 0,-22.16 48.07,-74.52 63.01,-90.78 11.74,-12.77 64.47,-69.78 81.29,-69.78 9.46,0 20.38,4.33 25.75,12.2 11.87,17.36 14.61,35.12 11.85,55.55 -1.35,10.08 -5.49,19.58 -8.8,29.13 -1.56,4.49 -2.6,6.78 -3.05,6.78 1.22,-1.23 -14.94,-12.49 -16.26,-13.55 -10.48,-8.45 -30.51,-25.75 -44.04,-25.75 -13.71,0 -31.23,13.96 -39.97,23.72 -14.52,16.21 -21,29.8 -21,39.29 0,17.92 35.69,62.48 47.42,76.56 13.82,16.57 48.58,54.87 71.81,54.87 7.68,0 18.52,-4.52 32.53,-13.55 1.35,0 2.03,3.84 2.03,11.52zm-226.96 52.84c0,8.02 -8.81,12.2 -26.42,12.2 -14.91,0 -22.36,-4.29 -22.36,-12.88l0 -293.35c0,-9.03 8.13,-13.55 24.39,-13.55 16.26,0 24.39,4.35 24.39,12.88l0 294.7zm303.51 -297.41c0,-8.13 8.58,-12.2 25.75,-12.2 15.35,0 23.03,4.58 23.03,13.55l0 186.31 10.16 0 118.56 -119.91 0.68 0 0 -67.75c0,-8.13 7.9,-12.2 23.71,-12.2 16.71,0 25.07,5.03 25.07,14.91l0 294.7c0,8.08 -10.84,12.2 -32.52,12.2 -10.84,0 -16.26,-4.75 -16.26,-14.23l0 -199.86 -10.16 0 -118.56 120.59 -0.68 0 0 82.66c0,7.17 -8.58,10.84 -25.75,10.84 -15.35,0 -23.03,-3.62 -23.03,-10.84l0 -298.77zm633.45 294.02c0,8.47 -1.78,13.76 -5.42,14.91 -2.77,0.86 -31.29,1.45 -35.23,0 -6.34,-2.34 -7.63,-8.03 -7.45,-14.23l6.77 -241.18 -25.07 0c-14.9,170.27 -48.32,255.41 -100.26,255.41 -37.45,0 -59.7,-79.75 -67.07,-107.72 -3.56,-13.53 -7.48,-32.78 -11.52,-57.59 -4.04,-24.81 -8.81,-54.87 -14.23,-90.1l-23.71 0 6.78 242.54c0.25,8.97 -11.75,13.55 -35.24,13.55 -9.03,0 -13.54,-4.52 -13.54,-13.55l0 -289.97c0,-8.58 2.71,-12.87 8.13,-12.87l50.13 0c6.32,0 12.16,5.46 14.23,16.94l22.36 123.98c5.78,32.07 27.38,90.1 67.74,90.1 15.81,0 29.84,-7.82 42.01,-23.37 12.16,-15.56 22.39,-35.46 29.13,-59.96 2.69,-9.78 4.88,-24.98 7.79,-45.05 2.91,-20.07 6.16,-44.84 9.14,-74.18 1.93,-18.93 6.33,-28.46 13.55,-28.46l54.88 0c4.07,0 6.1,4.35 6.1,12.87l0 287.93zm541.9 4.07c0,7.63 -8.35,11.52 -25.07,11.52 -15.8,0 -23.71,-3.84 -23.71,-11.52l0 -258.8c0,-14.9 -8.37,-22.35 -25.06,-22.35l-85.37 0c-18.04,0 -27.09,7.24 -27.09,21.67l0 259.48c0,7.2 -8.81,10.84 -26.43,10.84 -14.9,0 -22.35,-3.84 -22.35,-11.52l0 -289.28c0,-8.58 1.8,-12.88 5.42,-12.88l223.57 0c4.06,0 6.09,6.13 6.09,18.3l0 284.54zm339.42 -2.03c0,9.03 -8.58,13.55 -25.74,13.55 -13.1,0 -21.13,-3 -24.39,-8.81l-39.97 -71.14 -10.17 0c-23.14,31.31 -71.29,60.33 -108.05,72.16 -13.31,4.28 -24.96,6.43 -34.89,6.43 -8.13,0 -15.48,-4.97 -22.02,-14.9 -6.55,-9.94 -9.83,-21.23 -9.83,-33.88 0,-10.84 3.85,-24.52 11.52,-40.98 16.42,-35.27 39.82,-69.69 65.04,-99.26 13.09,-15.34 24.84,-27.77 35.23,-37.26 -15.36,-23.48 -25.98,-43.59 -31.84,-60.29 -5.86,-16.7 -8.81,-26.2 -8.81,-28.46 0,-4.51 10.16,-6.77 30.48,-6.77 18.53,0 29.39,2.38 31.85,7.45l136.17 281.16c3.17,6.53 5.42,13.32 5.42,21zm-152.43 -197.83l-9.49 0c-5.42,5.42 -12.09,13.23 -19.98,23.37 -15.81,20.33 -29.94,43.83 -40.31,67.41 -4.96,11.28 -7.45,20.33 -7.45,27.1 0,23.04 13.32,34.56 39.97,34.56 32.83,0 69.73,-12.44 91.46,-37.94l0.67 0 -54.87 -114.5zm338.74 33.87c0,-44.71 -20.1,-75.65 -60.3,-92.81l-8.13 0c-11.74,29.36 -17.61,57.14 -17.61,83.33 0,5.42 3.16,55.55 9.48,150.4l6.1 0c24.62,0 42.82,-19.31 55.44,-57.59 9.72,-29.45 15.02,-57.13 15.02,-83.33zm285.22 6.1c0,28.01 -9.27,62.11 -29.13,101.62 -22.58,44.93 -45.17,67.07 -66.4,67.07 -9.48,0 -25.23,-12.75 -46.74,-38.61 -25.44,-30.57 -37.94,-68.65 -37.94,-113.82 0,-10.84 2.83,-24.51 8.47,-40.99 5.63,-16.47 13.28,-35.2 23.37,-55.89 8.03,-16.47 35.49,-69.78 56.91,-69.78 8.13,0 21.23,9.04 39.29,27.1 34.78,34.78 52.17,75.88 52.17,123.3zm-36.58 48.78c0,-45.16 -10.67,-81.05 -31.85,-107.72 -15.38,-19.38 -32.07,-29.13 -50.13,-29.13 -18.97,0 -28.46,25.07 -28.46,75.2 0,42.46 14.69,76.57 44.04,102.3 10.82,9.48 20.55,14.23 29.13,14.23 24.85,0 37.27,-18.3 37.27,-54.88zm428.16 107.04c0,8.54 -1.75,13.75 -5.42,14.91 -2.78,0.88 -31.27,1.47 -35.22,0 -6.36,-2.36 -7.63,-8.03 -7.46,-14.23l6.78 -241.18 -25.07 0c-14.9,170.27 -48.33,255.41 -100.27,255.41 -37.44,0 -59.68,-79.73 -67.07,-107.72 -3.57,-13.55 -7.46,-32.76 -11.51,-57.59 -4.06,-24.83 -8.81,-54.87 -14.23,-90.1l-23.71 0 6.77 242.54c0.25,9 -11.74,13.55 -35.23,13.55 -9.03,0 -13.55,-4.52 -13.55,-13.55l0 -289.97c0,-8.58 2.71,-12.87 8.13,-12.87l50.13 0c6.33,0 12.16,5.42 14.23,16.94l22.36 123.98c5.79,32.11 27.39,90.1 67.75,90.1 15.8,0 29.82,-7.8 42,-23.37 12.19,-15.57 22.37,-35.45 29.13,-59.96 2.71,-9.81 4.87,-24.96 7.79,-45.05 2.93,-20.09 6.14,-44.82 9.15,-74.18 1.94,-18.95 6.32,-28.46 13.55,-28.46l54.88 0c4.06,0 6.09,4.32 6.09,12.87l0 287.93z"/>
  <line class="fil6 str0" x1="4791.81" y1="1460.44" x2="5384.26" y2= "1460.44" />
  <line class="fil6 str0" x1="-0" y1="1460.44" x2="664.68" y2= "1460.44" />
  <path class="fil7" d="M4859.38 182.4c-67.3,146.89 -100.45,300.46 -26.85,451.77 38.13,76.88 73.84,132.48 63.32,222.67 -9.68,69.39 -44.32,101.02 -111.69,118.33 -63.96,16.41 -142.15,5.93 -200.25,-24.36 -31.72,-18.18 -52.89,-35.86 -77.29,-62.98 -50.35,-62.63 29.91,-72.5 76.5,-88.46 62.68,-21.45 94.64,-42.74 151.08,-72.2 20.26,-10.56 24.82,-10.41 14.68,12.64 -7.58,17.2 -32.39,28.64 -48.06,38.16 -49.79,30.22 -85.38,42.38 -137.08,64.74 -42.06,18.21 -48.59,19.54 -6.64,46.26 4.92,3.15 9.09,5.56 14.24,8.21 93.21,30.1 206.91,8.42 251.19,-87.69 6.58,-15.44 10.98,-30.81 15.31,-46.96 10.03,-73.16 -63.86,-172.87 -81.47,-273.81 -26.58,-152.41 -18.96,-305.78 61.98,-439.78 11.14,-18.45 25.94,-22.09 46.39,-27.41 19.26,-5.01 97.48,-24.61 117.77,-21.1 9.24,1.6 3.6,2.43 -3.32,12.52 -24.06,34.98 -53.55,66.78 -78.42,102.57 -14.95,21.96 -28.3,43.78 -41.39,66.88z"/>
 </g>
</svg>
