<svg xmlns="http://www.w3.org/2000/svg" viewBox="0 0 5384.26 2290.44" xmlns:xlink="http://www.w3.org/1999/xlink">
 <defs>
  <style type="text/css">
   <![CDATA[
    .str0 {stroke:#FFF1B2;stroke-width:20;stroke-miterlimit:22.9256}
    .fil7 {fill:none}
    .fil0 {fill:#FEFEFE;fill-rule:nonzero}
    .fil3 {fill:url(#id0)}
    .fil1 {fill:url(#id1)}
    .fil4 {fill:url(#id2)}
    .fil6 {fill:url(#id3);fill-rule:nonzero}
    .fil2 {fill:url(#id4);fill-rule:nonzero}
    .fil5 {fill:url(#id5);fill-rule:nonzero}
    .fil8 {fill:url(#id6);fill-rule:nonzero}
   ]]>
  </style>
  <linearGradient id="id0" gradientUnits="userSpaceOnUse" x1="2935.49" y1="830.72" x2="3285.75" y2="830.72">
   <stop offset="0" style="stop-opacity:1; stop-color:#FEFEFE"/>
   <stop offset="1" style="stop-opacity:1; stop-color:white"/>
  </linearGradient>
  <linearGradient id="id1" gradientUnits="userSpaceOnUse" x1="2691.21" y1="-160.24" x2="2693.05" y2="2221.64">
   <stop offset="0" style="stop-opacity:1; stop-color:#8A6C3E"/>
   <stop offset="1" style="stop-opacity:1; stop-color:#423711"/>
  </linearGradient>
  <linearGradient id="id2" gradientUnits="userSpaceOnUse" xlink:href="#id0" x1="2560.82" y1="902.23" x2="2806.69" y2="902.23">
  </linearGradient>
  <linearGradient id="id3" gradientUnits="userSpaceOnUse" xlink:href="#id0" x1="861.2" y1="1237.41" x2="4427.38" y2="1237.41">
  </linearGradient>
  <linearGradient id="id4" gradientUnits="userSpaceOnUse" x1="909.97" y1="1824.47" x2="4423.7" y2="1824.47">
   <stop offset="0" style="stop-opacity:1; stop-color:#FFF1B2"/>
   <stop offset="1" style="stop-opacity:1; stop-color:white"/>
  </linearGradient>
  <linearGradient id="id5" gradientUnits="userSpaceOnUse" xlink:href="#id0" x1="351.3" y1="1097.28" x2="4870.9" y2="1097.28">
  </linearGradient>
  <linearGradient id="id6" gradientUnits="userSpaceOnUse" xlink:href="#id0" x1="4516.08" y1="833.63" x2="4954.27" y2="862.83">
  </linearGradient>
 </defs>
 <g id="Слой_x0020_1">
  <metadata id="CorelCorpID_0Corel-Layer"/>
  <path class="fil0" d="M4859.38 546.42c-67.3,146.89 -100.45,300.46 -26.85,451.77 38.13,76.88 73.84,132.48 63.32,222.67 -9.68,69.39 -44.32,101.02 -111.69,118.33 -63.96,16.41 -142.15,5.93 -200.25,-24.36 -31.72,-18.18 -52.89,-35.86 -77.29,-62.98 -50.35,-62.63 29.91,-72.5 76.5,-88.46 62.68,-21.45 94.64,-42.74 151.08,-72.2 20.26,-10.56 24.82,-10.41 14.68,12.64 -7.58,17.2 -32.39,28.64 -48.06,38.16 -49.79,30.22 -85.38,42.38 -137.08,64.74 -42.06,18.21 -48.59,19.54 -6.64,46.26 4.92,3.15 9.09,5.56 14.24,8.21 93.21,30.1 206.91,8.42 251.19,-87.69 6.58,-15.44 10.98,-30.81 15.31,-46.96 10.03,-73.16 -63.86,-172.87 -81.47,-273.81 -26.58,-152.41 -18.96,-305.78 61.98,-439.78 11.14,-18.45 25.94,-22.09 46.39,-27.41 19.26,-5.01 97.48,-24.61 117.77,-21.1 9.24,1.6 3.6,2.43 -3.32,12.52 -24.06,34.98 -53.55,66.78 -78.42,102.57 -14.95,21.96 -28.3,43.78 -41.39,66.88z"/>
  <rect class="fil1" x="0" y="-0.01" width="5384.25" height="2290.44" rx="3.99" ry="50.01"/>
  <path class="fil2" d="M1588.79 1629.9c0,61.02 -157.49,176.35 -158.02,272.02 -0.07,12.13 26.75,77.38 -9.64,54.15 -39.52,-25.22 -10.31,-92.14 7.95,-122.64 44.8,-74.84 181.63,-209.36 113.16,-209.36 -72.41,0 -258.34,181.46 -294.11,230.85 -2.8,3.86 -33.91,11.81 -1.09,-24.44 24.22,-26.76 148.41,-177.05 138.04,-209.26 -17.71,-55.04 -200.71,128.65 -209.81,138.39 -21.3,22.81 -96.1,118.39 -110,112.93 -8.53,-3.35 -2.18,-14.89 2.34,-19.7 29.61,-31.46 162.79,-203.28 138.28,-236.35 -40.59,-54.81 -315.47,46.25 -294.81,-87.96 6.78,-44.04 22.96,32.58 32.34,41.27 67.51,62.48 430.03,-113.21 221.58,181.36 20.34,-20.19 188.24,-197.44 239.66,-153.2 36.2,31.14 -65.61,141.76 -73.88,152.5 26.35,-24.78 224.67,-200.75 255.8,-131.98 1.46,3.25 2.21,7.06 2.21,11.42zm-239.04 115.12l0 0c1.12,1.32 3.1,1.49 4.44,0.4l-4.44 -0.4zm264.16 120.23l-30.36 -7.11c-84.67,81.03 -133.27,4.63 -21.95,-72.36 6.84,-4.73 39.26,-21.25 37.85,-1.67 47.66,-16.67 9.02,47.55 -2.71,60.66 21.38,19.69 93.4,-21.44 102.73,-35.43 12.46,-18.65 16.79,-36.25 40.22,-34.36 12.83,1.04 3.58,15.12 -0.3,20.99 130.4,-52.14 94.96,49.8 -6.42,71.99 -62.7,13.72 -20.31,-56.82 -4.39,-23.35 16.27,34.18 108.23,-55.06 39.82,-41.16 -56.44,11.46 -71.46,41.23 -107.38,88.05l-110.2 144.21c-139.81,178.65 -217.93,83.35 -90.45,-46.11 46.04,-46.76 98.89,-87.99 153.54,-124.35zm-22.39 -76.96c-35.33,0 -105.57,111.21 -37.4,73.33l21.11 -14.86c-8.14,-18.81 -0.86,-46.41 16.29,-58.47zm15.39 16.15c0,-14.07 -21.9,2.24 -16.99,28.24 6.84,-7.37 16.99,-18.16 16.99,-28.24zm92.99 53.37c-0.47,-0.62 -0.69,-1.37 -0.66,-2.11l0.66 2.11zm-24.8 -13.29c-265.54,151.64 -287.36,301.9 -218.97,261.48 65.46,-38.68 170.63,-193.67 218.97,-261.48zm315.54 5.41c-22.39,10.09 -60.28,26.69 -80.93,8.22 -84.56,80.89 -133.11,4.48 -21.97,-72.37 6.83,-4.72 39.23,-21.04 37.86,-1.66 48.67,-15.12 8.85,47.72 -2.71,60.66 31.98,29.44 136.61,-60.4 146.96,-46.23 9.85,13.47 -53.58,72.07 -18.11,49.37 0.12,-0.07 110.94,-82.91 101.84,-46.04 -6.8,27.52 -78.67,94.21 50.05,37.24 9.95,-4.41 32.51,-54.21 47.78,-38.06 10.25,10.85 -42.95,40.65 -18.04,53.77 24.84,13.08 81.87,-63.65 99.41,-54.02 18.12,9.95 -65.6,104.82 86.97,30.95 3.08,-1.5 90.24,-61.01 72.08,-20.49 -13.79,30.78 -76.97,75.04 29.76,5.42 6.02,-3.93 67.08,-45.22 52.18,-8.17 -3.44,8.54 -48.2,57.73 -15.96,44.11 5.42,-2.29 105.43,-91.2 95.48,-50.75 -7.04,28.6 -74.42,86.97 36.24,42.76 16.42,-40.78 113.95,-130.39 100.23,-79.04 -3.64,13.59 -26.16,21.95 -36.42,32.26 43.96,-23.02 41.45,31.71 19.47,53.43 14.88,3.01 34.52,-2.81 47.08,-10.94 7.53,-41.45 117.92,-111.33 117.92,-60.24 0,35.48 -69.83,45.79 -35.63,15.84 52.96,-46.38 -96.63,18.78 -48.19,58.25 35.15,28.65 129.17,-40.34 130.81,-7.19 1.37,27.73 50.23,-9.73 59.37,-16.49 -92.13,-33.2 43.12,-99.71 33.18,-23.73l-2.68 10.91c8.33,-4.22 21.59,-0.64 16.88,9.74 -16.86,37.2 5.67,40.13 35.37,28.47 7.15,-2.81 54.12,-29.92 54.12,-12.77 0,10.45 -97.05,49.62 -115.65,30.2 -9.57,-9.99 -10.02,-25.2 -3.61,-36.69 -20.64,18.66 -98.04,70.63 -107.04,19.78 -29.84,11.43 -125.2,55.19 -134.95,-1.06 -16.12,9.35 -41.59,14 -59.32,7.47 -16.95,13.59 -71.81,34.87 -73.95,-2.59 -45.93,18.99 -108.41,44.66 -70.59,-33.24 -12.11,9.19 -86.86,74.25 -103.14,45.74 -6.38,-11.17 13.73,-38.09 20.36,-48.83 -7.32,3.98 -109.76,81.22 -109.76,45.75 0,-14.32 18.83,-30.04 27.65,-39.48 -5.45,3.41 -175.37,96.98 -156.02,14.78 0.44,-1.89 1.04,-3.73 1.79,-5.51 -16.51,11.73 -98.4,66.34 -98.4,16.13 -44.54,17.82 -130.8,56.83 -86.35,-32.02 -0.08,0.04 -128.86,92.04 -109.27,40.2l26.48 -33.58c-11.63,6.78 -25.96,14.03 -38.63,19.74zm-72.98 -61.64c-34.93,0 -105.55,111.16 -37.39,73.33l21.11 -14.86c-8.26,-19.12 -0.76,-46.41 16.28,-58.47zm15.4 16.15c0,-13.91 -21.8,2.39 -16.99,28.25 6.59,-7.09 16.99,-18.29 16.99,-28.25zm783.54 35.81l-4.13 9.61c-3.39,18.28 25.93,10.76 33.01,5.82 -12.86,-9.02 -14.51,-27.66 -8.09,-41.14l-20.79 25.71zm40.83 5.45c40.94,-36.87 -20.02,-38.42 -6.45,-5.43l6.45 5.43zm300.36 -32.76c23.26,-46.03 -56.29,-17.25 -2.58,5.45l2.58 -5.45zm275.34 43.46c-30.68,48.6 -51,19.08 -6.63,-26.11 -0.03,0.01 -77.32,45.23 -63.22,16.68l78.42 -41.36c30.61,-19.5 32.88,-1.08 13.79,22.48l50.07 1.03c19.57,-37.46 66.86,-59.78 32.57,-5.98 -44.88,70.4 53.67,23.02 76.25,5.24l5.16 -3.88c-98.17,-15.88 125.41,-100.77 101.07,-49.05 -6.76,14.38 -47.94,24.54 -36.43,0.84l-57.63 23.83c1.57,7.08 45.6,-9.62 34.02,19.32 -0.49,1.22 -74.3,29.29 -25.42,40.74 35.31,8.27 117.69,-41.36 103.94,-13.68 -4.26,8.56 -156.89,68.91 -146.79,10.5 -23.95,9.79 -120.64,53.22 -92.89,-14.61l-57.29 1.71 -8.99 12.3zm193.41 -56.29l0 0zm417.51 60.57c-25.55,10.17 -109.23,42.99 -84.17,-18.29l-57.3 1.71c-7.56,8.57 -24.35,48.77 -39.99,33.43 -12.59,-12.33 16.45,-39.17 24.38,-47.24 -0.02,0.01 -77.24,44.98 -63.21,16.68l78.41 -41.36c30.94,-19.71 33.11,-1.32 13.79,22.48l50.08 1.04c18.65,-36.71 67.29,-60.48 32.55,-5.99 -44.55,69.9 51.78,22.1 56.08,15.93 62.29,-89.25 175.08,-72.93 110.86,-23.93 -21.32,16.26 -25.04,1.47 -10.51,-17.85 15.91,-21.14 -81.83,19.01 -81.83,54.69 0,30.33 66.82,-19.13 72.14,-17.14 19.21,7.21 -34.11,48.05 68.76,6.92 9.09,-47.28 151.6,-115.42 152.61,-62.75 0.29,15.1 -45.64,43.49 -45.64,18.79 0,-8.66 33.88,-27.92 0.81,-19.5 -80.44,20.51 -110.61,117.91 -10.65,44.31 13.47,-9.92 27.48,-7.14 14.97,8.15l-55.8 69.77c5.99,-0.96 192.04,-22.26 157.92,17.87 -13.37,15.73 -151.65,-8.32 -176.38,6.19 -22.74,13.34 -163.69,248.21 -225.32,201.81 -48.5,-36.53 27.66,-157.61 167.39,-206.48 58.27,-20.38 46.02,0.32 82.04,-51.26l8.74 -13.58c-14.93,8.67 -65.98,31.86 -70.7,0.74 -11.68,4.94 -98.1,45.41 -92,9.42 -15.73,8.67 -88.47,39.52 -78.03,-4.56zm187.24 67.44c-194.94,41.39 -214.8,192.78 -171.42,181.23 40.47,-10.78 140.53,-142.34 171.42,-181.23zm292.42 -84.98c0,17.76 -71.03,28.08 -85.61,15.01 -84.79,80.99 -133.23,4.53 -21.96,-72.37 6.9,-4.76 39.26,-21.06 37.86,-1.67 45.89,-16.05 14.09,41.85 -2.71,60.67 18.57,17.19 72.42,-20.07 72.42,-1.64zm-77.65 -54.85c-39.48,0 -111.53,124.62 -25.41,65.72 3.1,-2.23 6.14,-4.65 9.13,-7.25 -8.23,-19.04 -0.77,-46.47 16.28,-58.47zm15.41 16.15c0,-14.2 -21.88,2.09 -17,28.25 6.58,-7.07 17,-18.29 17,-28.25zm-17.78 22.39c0.06,1.7 -1.2,3.15 -2.9,3.31l-0.01 -0.08 2.91 -3.23z"/>
  <path class="fil3" d="M3133.22 715.94c-0.69,-8.26 0.49,-8 3.19,-13.97 1.94,-4.3 5.27,-3.23 6.65,-10.25 0.76,-3.83 0.78,-12.36 -0.57,-15.62 -6.18,-0.74 -4.96,4.34 -4.97,-17.96 -0.01,-10.3 0,-13.96 -5.51,-19.82 -1.48,-1.57 -1.55,-1.85 -2.73,-3.29 -1.95,-2.42 -4.17,-4.05 -5.83,-6.75 -4.19,-6.83 -18.23,-6.91 -25.52,-6.89 -9.18,0.02 -9.38,4.08 -17.63,6.15 -20.45,5.15 -9.99,38.91 -10.68,48.36 -5.48,4.59 -3.84,8.99 -0.61,15.41 1.09,2.18 2.32,5.73 3.34,7.53 1.04,1.86 5.63,3.67 7.74,1.7 2.71,15.46 7.82,32.12 -8.84,39.72 -29.84,13.61 -40.87,8.84 -62.1,38.48 -4.56,6.36 -8.89,12.85 -13.35,19.26 -6.94,9.66 -12.54,17.72 -17.74,28.56 -6.45,14.01 -22.48,23.13 -31.17,43.3 -8.93,28.43 -5.78,60.35 -10.18,89.49 -1.61,10.69 -1.56,18.34 -0.24,28.89 1.17,7.63 -1.14,7.52 5.33,10.4 4.73,2.11 8.8,5.59 10.4,6.13 2.95,0.99 3.8,0.16 5.27,2.45 1.66,2.61 1.14,3.06 3.57,4.6 8.49,5.33 17.95,3 8.88,-6.66 2.53,-1.36 5.81,-2.78 2.34,-6.24 -3.05,-3.05 -8.42,2.31 -5.5,-15.36 0.92,-5.53 3.81,-8.01 5.25,-1.6 2.11,9.3 13.72,24.22 18.04,14.18 1.08,-3.8 -3.43,-4.01 -5.45,-9.95 -0.39,-1.13 -2.84,-9.89 0.1,-8.7 1.72,0.69 5.22,2.65 7.32,3.63 8.88,4.13 8.75,5.03 18.93,7.47 7.21,1.74 14.12,4.23 20.69,7.73 -5.91,2.3 -14.85,0.44 -17.56,11.07 -2.76,10.83 5.32,24.81 17.32,27.5 8.03,0.74 16.77,-5.27 30.56,-5 15.71,0.5 17.61,1.83 33.65,-1.37 4.75,7.93 -6.09,7.01 16.32,7.44 10.94,0.22 22.58,1.6 32.09,-4.45 4.17,-4.17 -0.14,-9.7 7.06,-1.97 3.56,4.02 5.57,18.56 17.85,8.93 8.04,-8.67 -0.18,-21.68 3.1,-28.01 2.85,-2.61 4.19,-2.31 7.67,-6.26 7.96,-9.08 5.44,-5.15 16.06,-9.33 6.99,-2.74 10.43,-3.96 17.63,-5.83 6.64,-1.72 8.72,-3.12 14.46,-6.78 1.64,-1.03 3.26,-2.07 4.92,-3.08 -3.15,5.55 -5.88,5.97 -7.66,8.84 -1.84,2.97 4.99,3.89 7.09,3.4 8.41,-2.59 14.06,-13.47 16.57,-13.71 2.94,1.04 -0.01,19.14 -0.87,21.78 -2.29,5.66 -13.37,9.29 -10.11,15.51 2.22,4.27 11.12,-0.56 14.32,-1.82 15.42,-5.13 14,-0.02 22.86,-17.02 5.53,-10.62 3.33,-15.52 3.81,-26.76 0.2,-3.97 1.09,-5.99 2.87,-9.5 2.02,-3.73 2.37,-11.49 2.8,-15.89 0.89,-8.71 1.4,-17.16 1.29,-25.93l-0.02 -2.07c-2.18,-48.58 -14.59,-51.05 -41.5,-87.11 -8.33,-11.17 -12.17,-16.22 -19.4,-28.81 -4.41,-7.67 -8.52,-14.74 -13.53,-22.08 -7.15,-9.8 -13.81,-16.62 -24.46,-22.6 -15.55,-8.1 -39.12,-10.03 -50.95,-23.03 -2.07,-4.32 -2.36,-11.67 -2.66,-16.44zm-150.97 181.03c16.63,3.18 29.78,4.89 46.79,4.48 4.2,-0.09 13.3,0.41 13.99,-5.38 0.71,-5.89 -0.05,-16.95 -1.68,-22.65 -0.62,-1.67 -1.33,-3.37 -1.99,-5.03 -1.74,-6.4 -2.08,-35.98 -5.51,-36.65 -4.65,4.87 -19.52,14.86 -25.66,20.07 -9.38,7.96 -23.49,20.33 -25.85,33.04 -0.35,3.53 -0.12,8.51 -0.09,12.12zm191.69 7.47c25.16,7.98 38.99,0.99 63.07,-5.52 8.48,-2.3 8.06,-6.71 4.9,-14.25 -6.74,-16.11 -28.54,-30.77 -42.3,-40.96 -15.29,-11.32 -17.52,-33.05 -17.71,-14.71 -0.13,12.82 -9.53,38.46 -13.84,51.43 -2.54,7.85 0.18,11 1.98,18.9 0.69,3.03 1.35,3.35 3.9,5.11z"/>
  <path class="fil4" d="M2674.99 889.95c-2.96,3.28 -22.12,28.78 -14.49,31.84 7.76,2.13 24.17,-2.47 29.42,-9.25 4.24,-5.48 -3.95,-32.79 -14.93,-22.59zm118.93 2.98c13.29,15.87 16.65,24.44 7.94,44.47 -9.62,22.13 -22.82,43.85 -31.58,66.75 -5.7,14.92 -20.4,26.51 -20.36,42.04 0.98,12.44 6.66,30.21 9.89,42.85 2.91,11.18 4.25,19.71 6.54,30.74 3.71,16.61 10.96,34.04 20.54,48.1 4.64,6.81 5.23,12.71 7.78,20.12 2.16,5.77 1.57,8.2 -5.07,9.18 -0.62,0.09 -1.48,0.1 -2.13,0.14 -4.69,-0.31 -8.96,-1.98 -13.78,-2.56 -9.87,-1.91 -11.22,-8.74 -15.41,-16.97 -5.59,-10.98 -6.32,-9.43 -15.13,-16.42 -5.19,-4.1 -6.5,-7.95 -5.35,-14.5 1.82,-8.54 3.99,-8.29 0.69,-17.91 -3.54,-9.63 -7.56,-16.93 -12.27,-25.91 -2.45,-4.69 -3.24,-8.15 -4.43,-13.2 -5.32,7.75 -12.05,18.96 -14.19,28.11 -1.78,7.62 -2.15,13.02 -4.82,20.82 -0.47,1.36 -0.95,2.71 -1.43,4.06 -0.82,2.23 -1.44,4.11 -1.78,6.47 -0.64,6.98 2.6,16.78 -0.67,22.15 -4.18,5.42 -14.31,-2.71 -16.02,-7.5 -0.67,-1.98 -3.96,-12.01 -3.94,-13.24 -0.01,-12.22 -3.33,-6.46 1.14,-21.26 2.05,-6.76 3.79,-14.33 1.81,-21.3 -2.18,-7.68 1.48,-7.4 6.05,-13.21 4.85,-6.13 6.19,-13.16 9.32,-20.09 1.26,-2.66 1.97,-4.37 2.88,-7.18 0.96,-4.41 1.62,-8.84 2.61,-13.27 1.09,-4.74 1.3,-6.76 1.08,-11.66 -0.76,-10.42 -0.43,-10.35 -8.48,-17.07 -1.36,-1.14 -7.94,-5.44 -7.98,-5.49 -5.93,-9.06 -4.44,-11.55 -17.1,-10.73 -6.94,0.46 -11.66,0.54 -18.65,0.24 -7.65,-0.33 -12.27,0.54 -19.68,1.69 -20.57,2.67 -39.12,-0.55 -55.33,-14.45 -19.74,-16.9 -18.51,-46.74 -9.68,-69.04 2.74,-6.91 6.06,-13.58 9.35,-20.23 7.96,-15.91 9.88,-24.94 10.72,-42.81 0.36,-16.23 -1.77,-32.36 -2.82,-48.57 -0.67,-10.49 -9.74,-9.35 -11.87,-14.64 -2.03,-5.03 -4.73,-19.46 -4.37,-24.85 1.01,-8.2 6.28,-16.66 10.6,-23.58 2.42,-3.82 4.98,-6.83 8.08,-10.1 3.34,-3.41 6.17,-6.33 9.19,-10.08 7.09,-9.04 6.83,-17.86 3.46,-28.24l-0.55 -1.7c-8.55,-23.27 -32.99,-72.5 1.27,-90.6 17.63,-8.56 33.38,-6.82 48.88,5.05 10.24,7.84 13.86,23.24 14.25,35.51 0.11,3.56 -0.28,6.02 -1.12,9.46 -1.93,6.97 -2.4,9.05 -3.36,16.43 -1.8,13.8 -5.44,27.18 -7.42,41.11 -3.57,30.92 1.84,17.83 7.15,38.52 3.08,12.02 21.79,24.75 26.72,41.16 6.97,23.23 2.44,12.29 14.21,15.79 8.43,2.52 6.06,24.48 3.34,27.46 -7.21,6.52 -10.78,-2.1 -0.06,17.7 8.07,14.84 15.7,28.07 25.69,41.77 11.4,-2.67 57.04,-17.77 65.65,-9.53z"/>
  <path class="fil5" d="M1627.81 1427.79c644.03,-14.88 1313.83,-11.56 1971.71,-6.26l0 -49.89c-643.27,-1.62 -1313.27,-3.38 -1926.22,-3.09 -117.98,1.75 -328.61,0.04 -618.03,-5.73 -131.19,-2.63 -276.68,14.63 -375.75,5.8 -89.23,-7.95 -143.76,-34.25 -174.52,-57.05 -89.94,-66.68 -33.13,-311.06 17.06,-395.72 81.88,-138.13 260.06,-261.43 410,-242.42 63.34,8.01 39.53,64.7 17.17,104.25 -22.07,39.04 -52.94,79.11 -80.97,114.33 55.8,-12.97 80.92,-29.25 142.99,-32.85 25.68,-1.49 28.55,-3.81 42.84,-27.07 32.82,-53.43 61.51,-157.14 -17.78,-183.57l-6.19 -2.06c-122.9,-40.97 -307.39,14.35 -409.65,89.42 -97.81,71.8 -163.39,149.76 -214.12,258.76 -27.54,59.21 -49.2,123.93 -53.62,176.78 -8.44,100.63 21.54,182.37 76.85,217.19 81.39,51.21 144.57,62.45 269.81,62.82 108.73,0.34 295.76,-18.72 407.53,-19.54 210.45,-0.88 309.78,1.04 520.89,-4.1zm2096.38 -5.25c201.52,1.69 401.67,3.46 599.4,4.85 105.03,0.56 232.96,-3.65 315.27,72.28 47.78,44.05 64.58,44.62 128.71,49.38l8.99 0.67c18.45,1.4 35.41,2.91 53.76,5.6 49.69,8.59 52.18,14.86 15.99,-20.22 -75.4,-73.13 -179.44,-130.85 -283.39,-148.81 -79.41,-13.72 -195.67,-13.1 -279.27,-13.05 -182.18,-0.37 -369.4,-0.82 -559.46,-1.29l0 50.59z"/>
  <path class="fil6" d="M3683.17 1501.44c-4.54,23.33 -14.02,44.61 -28.79,63.54 -15.23,19.5 -27.55,29.13 -36.59,29.13 -5.87,0 -8.8,-3.62 -8.8,-10.84 41.27,-50.98 28.71,-185.09 21,-250.67 -5.43,-46.16 -8.81,-93.07 -8.81,-139.56 0,-39.69 13.07,-80.56 30.49,-115.85 13.96,-28.28 42.57,-73.85 78.59,-73.85 9.03,0 21.69,9.3 37.26,28.46 19.64,24.18 29.13,57.35 29.13,98.91 0,57.36 -23.77,113.77 -79.04,160.56l-18.41 15.59c-7.56,6.4 -13.89,10.16 -18.4,11.51l-4.07 0c4.19,60.25 10.56,120.62 6.44,183.07zm-2542.17 -186.46c0,6.78 -5.42,10.17 -16.26,10.17 -22.58,0 -35.52,-3.36 -38.62,-10.17l-92.13 -202.56 -10.17 0c-44.56,53.48 -60.29,134.66 -60.29,203.24 0,6.32 -11.75,9.49 -35.23,9.49 -18.07,0 -27.1,-6.1 -27.1,-18.29 0,-4.98 2.4,-14.72 7.11,-29.14 4.71,-14.42 11.7,-31.17 20.67,-50.13 23.1,-48.82 54.79,-94.32 93.49,-132.11l0.67 0c-13.09,-23.49 -23.03,-42.34 -29.8,-56.57 -6.78,-14.23 -10.16,-22.02 -10.16,-23.37 0,-8.13 11.74,-12.2 35.22,-12.2 11.3,0 19.87,2.56 25.07,8.13 1.08,1.16 2.96,5 6.1,10.84 3.13,5.84 6.91,13.36 11.18,22.36 19.01,40.07 37.98,80.32 56.57,120.59 20.39,44.19 36.04,79.75 47.08,106.36 11.04,26.62 16.6,41.11 16.6,43.36zm48.78 -161.91c0,-34.16 19.02,-69.14 39.29,-95.53 17.95,-23.36 48.16,-54.2 79.95,-54.2 5.41,0 13.7,7.56 25.06,22.36 7.6,9.89 15.58,23.02 15.58,35.91 0,10.83 -3.48,21.15 -10.84,30.48 -3.6,4.59 -11.62,14.08 -17.61,15.59l-4.06 -6.1c-9.24,-13.87 -14.48,-21.52 -15.59,-23.04 -11.05,-15.16 -22.13,-23.03 -33.87,-23.03 -14.25,0 -23.98,11.17 -27.78,23.71 -3.49,11.55 -4.74,23.08 -4.74,35.23 0,33.87 6.32,50.81 18.97,50.81 9.03,0 25.09,-5.46 48.1,-16.26 22.1,-10.37 37.26,-15.58 45.39,-15.58 0.9,0.9 1.98,1.93 2.71,3.39 1.54,3.07 3.9,6.62 6.77,10.83 2.95,4.32 4.89,8.28 6.44,11.18 5.57,10.39 0.7,23.62 -7.79,30.83 -8.03,6.83 -14.45,10.16 -18.97,10.16 0.45,0 -4.89,-4.89 -14.9,-15.58 -9.82,-10.49 -17.39,-16.26 -23.72,-16.26 -9.95,0 -20.33,3.96 -28.45,9.49 -11.77,8.01 -17.61,15.35 -17.61,21.68 0,14.7 7.33,29.38 14.22,42 9.76,17.87 21.68,27.1 36.59,27.1 17.61,0 33.65,-5.42 48.1,-16.26l2.71 4.06c-10.84,17.62 -22.69,32.48 -35.91,44.04 -11.18,9.78 -30.55,23.71 -46.07,23.71 -17.16,0 -36.21,-23.39 -56.23,-70.46 -17.41,-40.95 -25.74,-74.52 -25.74,-100.26zm66.39 -203.92c0,15.24 -7.45,23.03 -22.35,23.03 -15.81,0 -23.72,-7.91 -23.72,-23.71l0 -46.07c0,-14.45 7.91,-21.68 23.72,-21.68 14.9,0 22.35,7.96 22.35,23.71l0 44.72zm98.91 0c0,15.24 -7.9,23.03 -23.71,23.03 -14.45,0 -21.68,-7.91 -21.68,-23.71l0 -46.07c0,-14.45 7.23,-21.68 21.68,-21.68 15.81,0 23.71,7.96 23.71,23.71l0 44.72zm291.32 119.23c0,14.62 -1.4,30.37 -4.06,44.71 -0.71,3.79 -6.21,33.2 -10.16,33.2 -7.25,0 -30.44,-60.29 -33.2,-67.75 -3.66,-9.88 -8.05,-18.66 -13.21,-26.08 -5.17,-7.42 -9.59,-13.34 -13.89,-16.6 -6.96,-5.28 -24.16,-7.45 -50.81,-7.45 -27.55,0 -41.37,8.41 -41.33,25.07l0.68 261.5c0.02,6.72 -7.68,10.17 -23.03,10.17 -17.62,0 -26.43,-4.52 -26.43,-13.55l0 -287.25c0,-10.4 2.04,-15.59 6.1,-15.59l183.6 0c17.16,0 25.74,19.88 25.74,59.62zm326.55 191.73c0,9.94 -10.01,22.78 -29.81,38.62 -20.79,16.62 -34.55,25.06 -41.33,25.06 -8.13,0 -32.44,-23.42 -72.49,-70.46 -19.51,-22.9 -34.13,-41.92 -44.04,-56.57 -9.9,-14.65 -14.9,-25.63 -14.9,-32.86 0,-22.16 48.07,-74.52 63.01,-90.78 11.74,-12.77 64.47,-69.78 81.29,-69.78 9.46,0 20.38,4.33 25.75,12.2 11.87,17.36 14.61,35.12 11.85,55.55 -1.35,10.08 -5.49,19.58 -8.8,29.13 -1.56,4.49 -2.6,6.78 -3.05,6.78 1.22,-1.23 -14.94,-12.49 -16.26,-13.55 -10.48,-8.45 -30.51,-25.75 -44.04,-25.75 -13.71,0 -31.23,13.96 -39.97,23.72 -14.52,16.21 -21,29.8 -21,39.29 0,17.92 35.69,62.48 47.42,76.56 13.82,16.57 48.58,54.87 71.81,54.87 7.68,0 18.52,-4.52 32.53,-13.55 1.35,0 2.03,3.84 2.03,11.52zm-226.96 52.84c0,8.02 -8.81,12.2 -26.42,12.2 -14.91,0 -22.36,-4.29 -22.36,-12.88l0 -293.35c0,-9.03 8.13,-13.55 24.39,-13.55 16.26,0 24.39,4.35 24.39,12.88l0 294.7zm303.51 -297.41c0,-8.13 8.58,-12.2 25.75,-12.2 15.35,0 23.03,4.58 23.03,13.55l0 186.31 10.16 0 118.56 -119.91 0.68 0 0 -67.75c0,-8.13 7.9,-12.2 23.71,-12.2 16.71,0 25.07,5.03 25.07,14.91l0 294.7c0,8.08 -10.84,12.2 -32.52,12.2 -10.84,0 -16.26,-4.75 -16.26,-14.23l0 -199.86 -10.16 0 -118.56 120.59 -0.68 0 0 82.66c0,7.17 -8.58,10.84 -25.75,10.84 -15.35,0 -23.03,-3.62 -23.03,-10.84l0 -298.77zm633.45 294.02c0,8.47 -1.78,13.76 -5.42,14.91 -2.77,0.86 -31.29,1.45 -35.23,0 -6.34,-2.34 -7.63,-8.03 -7.45,-14.23l6.77 -241.18 -25.07 0c-14.9,170.27 -48.32,255.41 -100.26,255.41 -37.45,0 -59.7,-79.75 -67.07,-107.72 -3.56,-13.53 -7.48,-32.78 -11.52,-57.59 -4.04,-24.81 -8.81,-54.87 -14.23,-90.1l-23.71 0 6.78 242.54c0.25,8.97 -11.75,13.55 -35.24,13.55 -9.03,0 -13.54,-4.52 -13.54,-13.55l0 -289.97c0,-8.58 2.71,-12.87 8.13,-12.87l50.13 0c6.32,0 12.16,5.46 14.23,16.94l22.36 123.98c5.78,32.07 27.38,90.1 67.74,90.1 15.81,0 29.84,-7.82 42.01,-23.37 12.16,-15.56 22.39,-35.46 29.13,-59.96 2.69,-9.78 4.88,-24.98 7.79,-45.05 2.91,-20.07 6.16,-44.84 9.14,-74.18 1.93,-18.93 6.33,-28.46 13.55,-28.46l54.88 0c4.07,0 6.1,4.35 6.1,12.87l0 287.93zm541.9 4.07c0,7.63 -8.35,11.52 -25.07,11.52 -15.8,0 -23.71,-3.84 -23.71,-11.52l0 -258.8c0,-14.9 -8.37,-22.35 -25.06,-22.35l-85.37 0c-18.04,0 -27.09,7.24 -27.09,21.67l0 259.48c0,7.2 -8.81,10.84 -26.43,10.84 -14.9,0 -22.35,-3.84 -22.35,-11.52l0 -289.28c0,-8.58 1.8,-12.88 5.42,-12.88l223.57 0c4.06,0 6.09,6.13 6.09,18.3l0 284.54zm339.42 -2.03c0,9.03 -8.58,13.55 -25.74,13.55 -13.1,0 -21.13,-3 -24.39,-8.81l-39.97 -71.14 -10.17 0c-23.14,31.31 -71.29,60.33 -108.05,72.16 -13.31,4.28 -24.96,6.43 -34.89,6.43 -8.13,0 -15.48,-4.97 -22.02,-14.9 -6.55,-9.94 -9.83,-21.23 -9.83,-33.88 0,-10.84 3.85,-24.52 11.52,-40.98 16.42,-35.27 39.82,-69.69 65.04,-99.26 13.09,-15.34 24.84,-27.77 35.23,-37.26 -15.36,-23.48 -25.98,-43.59 -31.84,-60.29 -5.86,-16.7 -8.81,-26.2 -8.81,-28.46 0,-4.51 10.16,-6.77 30.48,-6.77 18.53,0 29.39,2.38 31.85,7.45l136.17 281.16c3.17,6.53 5.42,13.32 5.42,21zm-152.43 -197.83l-9.49 0c-5.41,5.42 -12.09,13.23 -19.98,23.37 -15.81,20.33 -29.94,43.83 -40.31,67.41 -4.96,11.28 -7.45,20.33 -7.45,27.1 0,23.04 13.32,34.56 39.97,34.56 32.83,0 69.73,-12.44 91.46,-37.94l0.67 0 -54.87 -114.5zm338.74 33.87c0,-44.71 -20.1,-75.65 -60.3,-92.81l-8.13 0c-11.74,29.36 -17.61,57.14 -17.61,83.33 0,5.42 3.16,55.55 9.48,150.4l6.1 0c24.62,0 42.82,-19.31 55.44,-57.59 9.72,-29.44 15.02,-57.13 15.02,-83.33zm285.22 6.1c0,28.01 -9.27,62.11 -29.13,101.62 -22.58,44.93 -45.17,67.07 -66.4,67.07 -9.48,0 -25.23,-12.75 -46.74,-38.61 -25.44,-30.57 -37.94,-68.65 -37.94,-113.82 0,-10.84 2.83,-24.51 8.47,-40.99 5.63,-16.47 13.28,-35.2 23.37,-55.89 8.03,-16.47 35.49,-69.78 56.91,-69.78 8.13,0 21.23,9.04 39.29,27.1 34.78,34.78 52.17,75.88 52.17,123.3zm-36.58 48.78c0,-45.16 -10.67,-81.05 -31.85,-107.72 -15.38,-19.38 -32.07,-29.13 -50.13,-29.13 -18.97,0 -28.45,25.07 -28.45,75.2 0,42.46 14.68,76.57 44.03,102.3 10.82,9.48 20.55,14.23 29.13,14.23 24.85,0 37.27,-18.3 37.27,-54.88zm428.16 107.04c0,8.54 -1.75,13.75 -5.42,14.91 -2.78,0.88 -31.27,1.47 -35.22,0 -6.36,-2.36 -7.63,-8.03 -7.46,-14.23l6.78 -241.18 -25.07 0c-14.9,170.27 -48.33,255.41 -100.27,255.41 -37.44,0 -59.68,-79.73 -67.07,-107.72 -3.57,-13.55 -7.46,-32.76 -11.51,-57.59 -4.06,-24.83 -8.81,-54.87 -14.23,-90.1l-23.71 0 6.77 242.54c0.25,9 -11.74,13.55 -35.23,13.55 -9.03,0 -13.55,-4.52 -13.55,-13.55l0 -289.97c0,-8.58 2.71,-12.87 8.13,-12.87l50.13 0c6.33,0 12.16,5.42 14.23,16.94l22.36 123.98c5.79,32.11 27.39,90.1 67.75,90.1 15.8,0 29.82,-7.8 42,-23.37 12.19,-15.57 22.37,-35.45 29.13,-59.96 2.71,-9.81 4.87,-24.96 7.79,-45.05 2.93,-20.09 6.14,-44.82 9.15,-74.18 1.94,-18.95 6.32,-28.46 13.55,-28.46l54.88 0c4.06,0 6.09,4.32 6.09,12.87l0 287.93z"/>
  <line class="fil7 str0" x1="4581.72" y1="1824.47" x2="5384.26" y2= "1824.47" />
  <line class="fil7 str0" x1="-0" y1="1824.47" x2="802.54" y2= "1824.47" />
  <path class="fil8" d="M4859.38 546.43c-67.3,146.89 -100.45,300.46 -26.85,451.77 38.13,76.88 73.84,132.48 63.32,222.67 -9.68,69.39 -44.32,101.02 -111.69,118.33 -63.96,16.41 -142.15,5.93 -200.25,-24.36 -31.72,-18.18 -52.89,-35.86 -77.29,-62.98 -50.35,-62.63 29.91,-72.5 76.5,-88.46 62.68,-21.45 94.64,-42.74 151.08,-72.2 20.26,-10.56 24.82,-10.41 14.68,12.64 -7.58,17.2 -32.39,28.64 -48.06,38.16 -49.79,30.22 -85.38,42.38 -137.08,64.74 -42.06,18.21 -48.59,19.54 -6.64,46.26 4.92,3.15 9.09,5.56 14.24,8.21 93.21,30.1 206.91,8.42 251.19,-87.69 6.58,-15.44 10.98,-30.81 15.31,-46.96 10.03,-73.16 -63.86,-172.87 -81.47,-273.81 -26.58,-152.41 -18.96,-305.78 61.98,-439.78 11.14,-18.45 25.94,-22.09 46.39,-27.41 19.26,-5.01 97.48,-24.61 117.77,-21.1 9.24,1.6 3.6,2.43 -3.32,12.52 -24.06,34.98 -53.55,66.78 -78.42,102.57 -14.95,21.96 -28.3,43.78 -41.39,66.88z"/>
 </g>
</svg>
