<svg xmlns="http://www.w3.org/2000/svg" version="1.1" viewBox="0 0 5384.26 2290.44" xmlns:xlink="http://www.w3.org/1999/xlink">
 <defs>
  <style type="text/css">
   <![CDATA[
    .str0 {stroke:#FFF1B2;stroke-width:20;stroke-miterlimit:22.9256}
    .fil7 {fill:none}
    .fil0 {fill:#FEFEFE;fill-rule:nonzero}
    .fil1 {fill:url(#id0)}
    .fil3 {fill:url(#id1)}
    .fil4 {fill:url(#id2)}
    .fil2 {fill:url(#id3);fill-rule:nonzero}
    .fil6 {fill:url(#id4);fill-rule:nonzero}
    .fil5 {fill:url(#id5);fill-rule:nonzero}
    .fil8 {fill:url(#id6);fill-rule:nonzero}
   ]]>
  </style>
  <linearGradient id="id0" gradientUnits="userSpaceOnUse" x1="2691.21" y1="-160.24" x2="2693.05" y2="2221.64">
   <stop offset="0" style="stop-opacity:1; stop-color:#8A6C3E"/>
   <stop offset="1" style="stop-opacity:1; stop-color:#423711"/>
  </linearGradient>
  <linearGradient id="id1" gradientUnits="userSpaceOnUse" x1="2935.49" y1="830.72" x2="3285.75" y2="830.72">
   <stop offset="0" style="stop-opacity:1; stop-color:#FEFEFE"/>
   <stop offset="1" style="stop-opacity:1; stop-color:white"/>
  </linearGradient>
  <linearGradient id="id2" gradientUnits="userSpaceOnUse" xlink:href="#id1" x1="2560.82" y1="902.23" x2="2806.69" y2="902.23">
  </linearGradient>
  <linearGradient id="id3" gradientUnits="userSpaceOnUse" x1="404.24" y1="1837.26" x2="4784.16" y2="1837.26">
   <stop offset="0" style="stop-opacity:1; stop-color:#FFF1B2"/>
   <stop offset="1" style="stop-opacity:1; stop-color:white"/>
  </linearGradient>
  <linearGradient id="id4" gradientUnits="userSpaceOnUse" xlink:href="#id1" x1="861.2" y1="1237.41" x2="4427.38" y2="1237.41">
  </linearGradient>
  <linearGradient id="id5" gradientUnits="userSpaceOnUse" xlink:href="#id1" x1="351.3" y1="1097.28" x2="4870.9" y2="1097.28">
  </linearGradient>
  <linearGradient id="id6" gradientUnits="userSpaceOnUse" xlink:href="#id1" x1="4516.08" y1="833.63" x2="4954.27" y2="862.83">
  </linearGradient>
 </defs>
 <g id="Слой_x0020_1">
  <path class="fil0" d="M4859.38 546.42c-67.3,146.89 -100.45,300.46 -26.85,451.77 38.13,76.88 73.84,132.48 63.32,222.67 -9.68,69.39 -44.32,101.02 -111.69,118.33 -63.96,16.41 -142.15,5.93 -200.25,-24.36 -31.72,-18.18 -52.89,-35.86 -77.29,-62.98 -50.35,-62.63 29.91,-72.5 76.5,-88.46 62.68,-21.45 94.64,-42.74 151.08,-72.2 20.26,-10.56 24.82,-10.41 14.68,12.64 -7.58,17.2 -32.39,28.64 -48.06,38.16 -49.79,30.22 -85.38,42.38 -137.08,64.74 -42.06,18.21 -48.59,19.54 -6.64,46.26 4.92,3.15 9.09,5.56 14.24,8.21 93.21,30.1 206.91,8.42 251.19,-87.69 6.58,-15.44 10.98,-30.81 15.31,-46.96 10.03,-73.16 -63.86,-172.87 -81.47,-273.81 -26.58,-152.41 -18.96,-305.78 61.98,-439.78 11.14,-18.45 25.94,-22.09 46.39,-27.41 19.26,-5.01 97.48,-24.61 117.77,-21.1 9.24,1.6 3.6,2.43 -3.32,12.52 -24.06,34.98 -53.55,66.78 -78.42,102.57 -14.95,21.96 -28.3,43.78 -41.39,66.88z"/>
  <rect class="fil1" x="0" y="-0.01" width="5384.25" height="2290.44" rx="3.99" ry="50.01"/>
  <path class="fil2" d="M1250.39 1594.73c0,76.07 -196.31,219.83 -196.96,339.08 -0.09,15.12 33.34,96.45 -12.02,67.5 -49.26,-31.44 -12.85,-114.85 9.9,-152.87 55.85,-93.29 226.41,-260.97 141.06,-260.97 -90.26,0 -322.03,226.19 -366.61,287.76 -3.48,4.81 -42.27,14.71 -1.36,-30.47 30.19,-33.35 184.99,-220.69 172.07,-260.84 -22.07,-68.61 -250.19,160.36 -261.53,172.5 -26.55,28.43 -119.78,147.57 -137.11,140.77 -10.64,-4.18 -2.73,-18.56 2.91,-24.55 36.91,-39.22 202.92,-253.39 172.37,-294.63 -50.6,-68.31 -393.24,57.67 -367.49,-109.63 8.45,-54.9 28.62,40.61 40.32,51.44 84.14,77.88 536.04,-141.11 276.2,226.07 25.35,-25.16 234.64,-246.11 298.74,-190.97 45.12,38.82 -81.78,176.71 -92.09,190.09 32.84,-30.88 280.05,-250.23 318.85,-164.5 1.83,4.04 2.75,8.79 2.75,14.22zm-297.95 143.5l-0.01 0.01c1.4,1.63 3.86,1.84 5.53,0.49l-5.52 -0.5zm329.27 149.87l-37.84 -8.86c-105.55,101 -166.13,5.77 -27.37,-90.2 8.54,-5.9 48.94,-26.49 47.19,-2.08 59.4,-20.78 11.24,59.27 -3.38,75.62 26.64,24.54 116.42,-26.74 128.06,-44.17 15.52,-23.25 20.92,-45.19 50.12,-42.83 16.01,1.3 4.47,18.84 -0.37,26.17 162.55,-65 118.37,62.06 -7.99,89.73 -78.16,17.1 -25.33,-70.83 -5.48,-29.11 20.28,42.61 134.9,-68.62 49.63,-51.3 -70.34,14.28 -89.08,51.39 -133.85,109.76l-137.36 179.75c-174.28,222.7 -271.65,103.9 -112.75,-57.48 57.39,-58.28 123.27,-109.68 191.39,-155zm-27.91 -95.92c-44.03,0 -131.59,138.62 -46.62,91.4l26.32 -18.53c-10.16,-23.44 -1.08,-57.85 20.3,-72.87zm19.18 20.12c0,-17.54 -27.3,2.79 -21.17,35.2 8.52,-9.19 21.17,-22.64 21.17,-35.2zm115.92 66.53c-0.59,-0.77 -0.87,-1.71 -0.83,-2.63l0.83 2.63zm-30.92 -16.57c-330.99,189.03 -358.19,376.32 -272.95,325.94 81.6,-48.22 212.69,-241.41 272.95,-325.94zm393.33 6.74c-27.91,12.58 -75.14,33.28 -100.89,10.25 -105.4,100.83 -165.91,5.58 -27.38,-90.21 8.51,-5.88 48.91,-26.22 47.19,-2.06 60.67,-18.85 11.04,59.48 -3.37,75.6 39.86,36.71 170.28,-75.29 183.19,-57.63 12.27,16.8 -66.8,89.85 -22.58,61.55 0.15,-0.09 138.28,-103.35 126.94,-57.39 -8.47,34.3 -98.06,117.44 62.39,46.42 12.4,-5.5 40.53,-67.57 59.56,-47.44 12.78,13.52 -53.53,50.67 -22.48,67.02 30.96,16.31 102.04,-79.34 123.92,-67.33 22.58,12.4 -81.78,130.65 108.4,38.57 3.84,-1.86 112.49,-76.05 89.85,-25.53 -17.2,38.36 -95.94,93.54 37.09,6.74 7.51,-4.89 83.62,-56.36 65.04,-10.17 -4.28,10.64 -60.07,71.96 -19.88,54.98 6.74,-2.86 131.42,-113.68 119.01,-63.26 -8.78,35.66 -92.77,108.41 45.17,53.3 20.47,-50.83 142.05,-162.54 124.94,-98.52 -4.53,16.93 -32.61,27.36 -45.39,40.21 54.79,-28.69 51.67,39.53 24.26,66.6 18.55,3.75 43.04,-3.5 58.69,-13.64 9.39,-51.66 146.99,-138.77 146.99,-75.09 0,44.23 -87.05,57.08 -44.42,19.75 66.02,-57.81 -120.44,23.41 -60.07,72.61 43.82,35.71 161.02,-50.28 163.06,-8.97 1.7,34.57 62.62,-12.13 74.01,-20.55 -114.85,-41.38 53.75,-124.29 41.36,-29.58l-3.35 13.6c10.39,-5.26 26.92,-0.8 21.05,12.15 -21.03,46.37 7.06,50.02 44.09,35.48 8.91,-3.51 67.45,-37.3 67.45,-15.92 0,13.03 -120.96,61.85 -144.15,37.64 -11.93,-12.45 -12.49,-31.41 -4.5,-45.72 -25.73,23.26 -122.21,88.03 -133.43,24.65 -37.19,14.24 -156.07,68.79 -168.22,-1.33 -20.09,11.66 -51.84,17.45 -73.94,9.32 -21.12,16.94 -89.51,43.46 -92.18,-3.22 -57.25,23.66 -135.13,55.66 -87.99,-41.45 -15.1,11.46 -108.27,92.56 -128.56,57.02 -7.96,-13.92 17.11,-47.48 25.38,-60.87 -9.13,4.96 -136.83,101.25 -136.83,57.03 0,-17.85 23.48,-37.44 34.48,-49.21 -6.8,4.24 -218.61,120.89 -194.49,18.42 0.55,-2.36 1.3,-4.65 2.24,-6.87 -20.59,14.63 -122.66,82.7 -122.66,20.11 -55.53,22.21 -163.04,70.84 -107.64,-39.91 -0.1,0.05 -160.62,114.73 -136.21,50.11l33.01 -41.86c-14.49,8.46 -32.36,17.48 -48.15,24.6zm-90.98 -76.82c-43.54,0 -131.56,138.56 -46.6,91.4l26.31 -18.53c-10.3,-23.82 -0.95,-57.85 20.29,-72.87zm19.21 20.12c0,-17.34 -27.19,2.98 -21.19,35.21 8.22,-8.83 21.19,-22.8 21.19,-35.21zm976.68 44.64l-5.14 11.98c-4.23,22.79 32.31,13.41 41.14,7.25 -16.03,-11.24 -18.09,-34.48 -10.08,-51.28l-25.92 32.05zm50.9 6.79c51.04,-45.96 -24.96,-47.89 -8.03,-6.77l8.03 6.77zm374.4 -40.83c29,-57.38 -70.17,-21.5 -3.21,6.79l3.21 -6.79zm343.21 54.17c-38.24,60.58 -63.57,23.79 -8.26,-32.55 -0.03,0.02 -96.38,56.39 -78.8,20.8l97.75 -51.56c38.15,-24.3 40.99,-1.35 17.19,28.02l62.42 1.29c24.38,-46.7 83.34,-74.52 40.59,-7.46 -55.94,87.76 66.9,28.7 95.06,6.53l6.43 -4.84c-122.38,-19.79 156.31,-125.6 125.97,-61.13 -8.43,17.92 -59.75,30.59 -45.41,1.05l-71.83 29.7c1.96,8.83 56.84,-12 42.41,24.08 -0.62,1.52 -92.62,36.51 -31.7,50.78 44.03,10.31 146.72,-51.55 129.57,-17.05 -5.31,10.67 -195.57,85.9 -182.97,13.08 -29.86,12.21 -150.38,66.35 -115.79,-18.2l-71.42 2.13 -11.21 15.33zm241.09 -70.16l0 0zm520.44 75.5c-31.85,12.67 -136.16,53.58 -104.92,-22.8l-71.43 2.13c-9.42,10.68 -30.35,60.79 -49.85,41.67 -15.68,-15.37 20.51,-48.83 30.39,-58.89 -0.02,0.02 -96.28,56.07 -78.79,20.8l97.74 -51.56c38.57,-24.57 41.28,-1.64 17.2,28.02l62.41 1.29c23.26,-45.75 83.88,-75.39 40.58,-7.46 -55.54,87.13 64.54,27.55 69.91,19.86 77.64,-111.26 218.23,-90.91 138.19,-29.84 -26.58,20.28 -31.22,1.84 -13.1,-22.24 19.83,-26.35 -102.01,23.69 -102.01,68.17 0,37.81 83.3,-23.85 89.93,-21.36 23.94,8.99 -42.52,59.89 85.7,8.62 11.34,-58.93 188.98,-143.88 190.24,-78.21 0.36,18.81 -56.9,54.21 -56.9,23.41 0,-10.8 42.24,-34.8 1.02,-24.3 -100.27,25.57 -137.88,146.97 -13.28,55.23 16.79,-12.37 34.26,-8.89 18.66,10.16l-69.56 86.97c7.47,-1.2 239.38,-27.75 196.85,22.28 -16.66,19.6 -189.04,-10.38 -219.86,7.7 -28.35,16.64 -204.04,309.41 -280.86,251.56 -60.46,-45.53 34.47,-196.46 208.65,-257.37 72.63,-25.4 57.36,0.4 102.27,-63.89l10.89 -16.94c-18.61,10.81 -82.24,39.72 -88.13,0.92 -14.56,6.17 -122.29,56.61 -114.67,11.75 -19.62,10.8 -110.29,49.27 -97.27,-5.68zm233.39 84.05c-242.99,51.6 -267.75,240.32 -213.68,225.92 50.45,-13.44 175.18,-177.44 213.68,-225.92zm364.5 -105.92c0,22.14 -88.53,35 -106.7,18.71 -105.69,100.96 -166.08,5.64 -27.37,-90.21 8.59,-5.94 48.93,-26.25 47.19,-2.08 57.19,-20.01 17.56,52.17 -3.38,75.62 23.15,21.43 90.26,-25.01 90.26,-2.04zm-96.78 -68.36c-49.21,0 -139.02,155.33 -31.67,81.91 3.86,-2.78 7.65,-5.8 11.37,-9.04 -10.25,-23.73 -0.96,-57.92 20.3,-72.87zm19.21 20.12c0,-17.69 -27.28,2.6 -21.2,35.22 8.21,-8.82 21.2,-22.81 21.2,-35.22zm-22.17 27.91c0.08,2.12 -1.49,3.93 -3.61,4.13l-0.01 -0.1 3.62 -4.03z"/>
  <path class="fil3" d="M3133.22 715.94c-0.69,-8.26 0.49,-8 3.19,-13.97 1.94,-4.3 5.27,-3.23 6.65,-10.25 0.76,-3.83 0.78,-12.36 -0.57,-15.62 -6.18,-0.74 -4.96,4.34 -4.97,-17.96 -0.01,-10.3 0,-13.96 -5.51,-19.82 -1.48,-1.57 -1.55,-1.85 -2.73,-3.29 -1.95,-2.42 -4.17,-4.05 -5.83,-6.75 -4.19,-6.83 -18.23,-6.91 -25.52,-6.89 -9.18,0.02 -9.38,4.08 -17.63,6.15 -20.45,5.15 -9.99,38.91 -10.68,48.36 -5.48,4.59 -3.84,8.99 -0.61,15.41 1.09,2.18 2.32,5.73 3.34,7.53 1.04,1.86 5.63,3.67 7.74,1.7 2.71,15.46 7.82,32.12 -8.84,39.72 -29.84,13.61 -40.87,8.84 -62.1,38.48 -4.56,6.36 -8.89,12.85 -13.35,19.26 -6.94,9.66 -12.54,17.72 -17.74,28.56 -6.45,14.01 -22.48,23.13 -31.17,43.3 -8.93,28.43 -5.78,60.35 -10.18,89.49 -1.61,10.69 -1.56,18.34 -0.24,28.89 1.17,7.63 -1.14,7.52 5.33,10.4 4.73,2.11 8.8,5.59 10.4,6.13 2.95,0.99 3.8,0.16 5.27,2.45 1.66,2.61 1.14,3.06 3.57,4.6 8.49,5.33 17.95,3 8.88,-6.66 2.53,-1.36 5.81,-2.78 2.34,-6.24 -3.05,-3.05 -8.42,2.31 -5.5,-15.36 0.92,-5.53 3.81,-8.01 5.25,-1.6 2.11,9.3 13.72,24.22 18.04,14.18 1.08,-3.8 -3.43,-4.01 -5.45,-9.95 -0.39,-1.13 -2.84,-9.89 0.1,-8.7 1.72,0.69 5.22,2.65 7.32,3.63 8.88,4.13 8.75,5.03 18.93,7.47 7.21,1.74 14.12,4.23 20.69,7.73 -5.91,2.3 -14.85,0.44 -17.56,11.07 -2.76,10.83 5.32,24.81 17.32,27.5 8.03,0.74 16.77,-5.27 30.56,-5 15.71,0.5 17.61,1.83 33.65,-1.37 4.75,7.93 -6.09,7.01 16.32,7.44 10.94,0.22 22.58,1.6 32.09,-4.45 4.17,-4.17 -0.14,-9.7 7.06,-1.97 3.56,4.02 5.57,18.56 17.85,8.93 8.04,-8.67 -0.18,-21.68 3.1,-28.01 2.85,-2.61 4.19,-2.31 7.67,-6.26 7.96,-9.08 5.44,-5.15 16.06,-9.33 6.99,-2.74 10.43,-3.96 17.63,-5.83 6.64,-1.72 8.72,-3.12 14.46,-6.78 1.64,-1.03 3.26,-2.07 4.92,-3.08 -3.15,5.55 -5.88,5.97 -7.66,8.84 -1.84,2.97 4.99,3.89 7.09,3.4 8.41,-2.59 14.06,-13.47 16.57,-13.71 2.94,1.04 -0.01,19.14 -0.87,21.78 -2.29,5.66 -13.37,9.29 -10.11,15.51 2.22,4.27 11.12,-0.56 14.32,-1.82 15.42,-5.13 14,-0.02 22.86,-17.02 5.53,-10.62 3.33,-15.52 3.81,-26.76 0.2,-3.97 1.09,-5.99 2.87,-9.5 2.02,-3.73 2.37,-11.49 2.8,-15.89 0.89,-8.71 1.4,-17.16 1.29,-25.93l-0.02 -2.07c-2.18,-48.58 -14.59,-51.05 -41.5,-87.11 -8.33,-11.17 -12.17,-16.22 -19.4,-28.81 -4.41,-7.67 -8.52,-14.74 -13.53,-22.08 -7.15,-9.8 -13.81,-16.62 -24.46,-22.6 -15.55,-8.1 -39.12,-10.03 -50.95,-23.03 -2.07,-4.32 -2.36,-11.67 -2.66,-16.44zm-150.97 181.03c16.63,3.18 29.78,4.89 46.79,4.48 4.2,-0.09 13.3,0.41 13.99,-5.38 0.71,-5.89 -0.05,-16.95 -1.68,-22.65 -0.62,-1.67 -1.33,-3.37 -1.99,-5.03 -1.74,-6.4 -2.08,-35.98 -5.51,-36.65 -4.65,4.87 -19.52,14.86 -25.66,20.07 -9.38,7.96 -23.49,20.33 -25.85,33.04 -0.35,3.53 -0.12,8.51 -0.09,12.12zm191.69 7.47c25.16,7.98 38.99,0.99 63.07,-5.52 8.48,-2.3 8.06,-6.71 4.9,-14.25 -6.74,-16.11 -28.54,-30.77 -42.3,-40.96 -15.29,-11.32 -17.52,-33.05 -17.71,-14.71 -0.13,12.82 -9.53,38.46 -13.84,51.43 -2.54,7.85 0.18,11 1.98,18.9 0.69,3.03 1.35,3.35 3.9,5.11z"/>
  <path class="fil4" d="M2674.99 889.95c-2.96,3.28 -22.12,28.78 -14.49,31.84 7.76,2.13 24.17,-2.47 29.42,-9.25 4.24,-5.48 -3.95,-32.79 -14.93,-22.59zm118.93 2.98c13.29,15.87 16.65,24.44 7.94,44.47 -9.62,22.13 -22.82,43.85 -31.58,66.75 -5.7,14.92 -20.4,26.51 -20.36,42.04 0.98,12.44 6.66,30.21 9.89,42.85 2.91,11.18 4.25,19.71 6.54,30.74 3.71,16.61 10.96,34.04 20.54,48.1 4.64,6.81 5.23,12.71 7.78,20.12 2.16,5.77 1.57,8.2 -5.07,9.18 -0.62,0.09 -1.48,0.1 -2.13,0.14 -4.69,-0.31 -8.96,-1.98 -13.78,-2.56 -9.87,-1.91 -11.22,-8.74 -15.41,-16.97 -5.59,-10.98 -6.32,-9.43 -15.13,-16.42 -5.19,-4.1 -6.5,-7.95 -5.35,-14.5 1.82,-8.54 3.99,-8.29 0.69,-17.91 -3.54,-9.63 -7.56,-16.93 -12.27,-25.91 -2.45,-4.69 -3.24,-8.15 -4.43,-13.2 -5.32,7.75 -12.05,18.96 -14.19,28.11 -1.78,7.62 -2.15,13.02 -4.82,20.82 -0.47,1.36 -0.95,2.71 -1.43,4.06 -0.82,2.23 -1.44,4.11 -1.78,6.47 -0.64,6.98 2.6,16.78 -0.67,22.15 -4.18,5.42 -14.31,-2.71 -16.02,-7.5 -0.67,-1.98 -3.96,-12.01 -3.94,-13.24 -0.01,-12.22 -3.33,-6.46 1.14,-21.26 2.05,-6.76 3.79,-14.33 1.81,-21.3 -2.18,-7.68 1.48,-7.4 6.05,-13.21 4.85,-6.13 6.19,-13.16 9.32,-20.09 1.26,-2.66 1.97,-4.37 2.88,-7.18 0.96,-4.41 1.62,-8.84 2.61,-13.27 1.09,-4.74 1.3,-6.76 1.08,-11.66 -0.76,-10.42 -0.43,-10.35 -8.48,-17.07 -1.36,-1.14 -7.94,-5.44 -7.98,-5.49 -5.93,-9.06 -4.44,-11.55 -17.1,-10.73 -6.94,0.46 -11.66,0.54 -18.65,0.24 -7.65,-0.33 -12.27,0.54 -19.68,1.69 -20.57,2.67 -39.12,-0.55 -55.33,-14.45 -19.74,-16.9 -18.51,-46.74 -9.68,-69.04 2.74,-6.91 6.06,-13.58 9.35,-20.23 7.96,-15.91 9.88,-24.94 10.72,-42.81 0.36,-16.23 -1.77,-32.36 -2.82,-48.57 -0.67,-10.49 -9.74,-9.35 -11.87,-14.64 -2.03,-5.03 -4.73,-19.46 -4.37,-24.85 1.01,-8.2 6.28,-16.66 10.6,-23.58 2.42,-3.82 4.98,-6.83 8.08,-10.1 3.34,-3.41 6.17,-6.33 9.19,-10.08 7.09,-9.04 6.83,-17.86 3.46,-28.24l-0.55 -1.7c-8.55,-23.27 -32.99,-72.5 1.27,-90.6 17.63,-8.56 33.38,-6.82 48.88,5.05 10.24,7.84 13.86,23.24 14.25,35.51 0.11,3.56 -0.28,6.02 -1.12,9.46 -1.93,6.97 -2.4,9.05 -3.36,16.43 -1.8,13.8 -5.44,27.18 -7.42,41.11 -3.57,30.92 1.84,17.83 7.15,38.52 3.08,12.02 21.79,24.75 26.72,41.16 6.97,23.23 2.44,12.29 14.21,15.79 8.43,2.52 6.06,24.48 3.34,27.46 -7.21,6.52 -10.78,-2.1 -0.06,17.7 8.07,14.84 15.7,28.07 25.69,41.77 11.4,-2.67 57.04,-17.77 65.65,-9.53z"/>
  <path class="fil5" d="M1627.81 1427.79c644.03,-14.88 1313.83,-11.56 1971.71,-6.26l0 -49.89c-643.27,-1.62 -1313.27,-3.38 -1926.22,-3.09 -117.98,1.75 -328.61,0.04 -618.03,-5.73 -131.19,-2.63 -276.68,14.63 -375.75,5.8 -89.23,-7.95 -143.76,-34.25 -174.52,-57.05 -89.94,-66.68 -33.13,-311.06 17.06,-395.72 81.88,-138.13 260.06,-261.43 410,-242.42 63.34,8.01 39.53,64.7 17.17,104.25 -22.07,39.04 -52.94,79.11 -80.97,114.33 55.8,-12.97 80.92,-29.25 142.99,-32.85 25.68,-1.49 28.55,-3.81 42.84,-27.07 32.82,-53.43 61.51,-157.14 -17.78,-183.57l-6.19 -2.06c-122.9,-40.97 -307.39,14.35 -409.65,89.42 -97.81,71.8 -163.39,149.76 -214.12,258.76 -27.54,59.21 -49.2,123.93 -53.62,176.78 -8.44,100.63 21.54,182.37 76.85,217.19 81.39,51.21 144.57,62.45 269.81,62.82 108.73,0.34 295.76,-18.72 407.53,-19.54 210.45,-0.88 309.78,1.04 520.89,-4.1zm2096.38 -5.25c201.52,1.69 401.67,3.46 599.4,4.85 105.03,0.56 232.96,-3.65 315.27,72.28 47.78,44.05 64.58,44.62 128.71,49.38l8.99 0.67c18.45,1.4 35.41,2.91 53.76,5.6 49.69,8.59 52.18,14.86 15.99,-20.22 -75.4,-73.13 -179.44,-130.85 -283.39,-148.81 -79.41,-13.72 -195.67,-13.1 -279.27,-13.05 -182.18,-0.37 -369.4,-0.82 -559.46,-1.29l0 50.59z"/>
  <path class="fil6" d="M3683.17 1501.44c-4.54,23.33 -14.02,44.61 -28.79,63.54 -15.23,19.5 -27.55,29.13 -36.59,29.13 -5.87,0 -8.8,-3.62 -8.8,-10.84 41.27,-50.98 28.71,-185.09 21,-250.67 -5.43,-46.16 -8.81,-93.07 -8.81,-139.56 0,-39.69 13.07,-80.56 30.49,-115.85 13.96,-28.28 42.57,-73.85 78.59,-73.85 9.03,0 21.69,9.3 37.26,28.46 19.64,24.18 29.13,57.35 29.13,98.91 0,57.36 -23.77,113.77 -79.04,160.56l-18.41 15.59c-7.56,6.4 -13.89,10.16 -18.4,11.51l-4.07 0c4.19,60.25 10.56,120.62 6.44,183.07zm-2542.17 -186.46c0,6.78 -5.42,10.17 -16.26,10.17 -22.58,0 -35.52,-3.36 -38.62,-10.17l-92.13 -202.56 -10.17 0c-44.56,53.48 -60.29,134.66 -60.29,203.24 0,6.32 -11.75,9.49 -35.23,9.49 -18.07,0 -27.1,-6.1 -27.1,-18.29 0,-4.98 2.4,-14.72 7.11,-29.14 4.71,-14.42 11.7,-31.17 20.67,-50.13 23.1,-48.82 54.79,-94.32 93.49,-132.11l0.67 0c-13.09,-23.49 -23.03,-42.34 -29.8,-56.57 -6.78,-14.23 -10.16,-22.02 -10.16,-23.37 0,-8.13 11.74,-12.2 35.22,-12.2 11.3,0 19.87,2.56 25.07,8.13 1.08,1.16 2.96,5 6.1,10.84 3.13,5.84 6.91,13.36 11.18,22.36 19.01,40.07 37.98,80.32 56.57,120.59 20.39,44.19 36.04,79.75 47.08,106.36 11.04,26.62 16.6,41.11 16.6,43.36zm48.78 -161.91c0,-34.16 19.02,-69.14 39.29,-95.53 17.95,-23.36 48.16,-54.2 79.95,-54.2 5.41,0 13.7,7.56 25.06,22.36 7.6,9.89 15.58,23.02 15.58,35.91 0,10.83 -3.48,21.15 -10.84,30.48 -3.6,4.59 -11.62,14.08 -17.61,15.59l-4.06 -6.1c-9.24,-13.87 -14.48,-21.52 -15.59,-23.04 -11.05,-15.16 -22.13,-23.03 -33.87,-23.03 -14.25,0 -23.98,11.17 -27.78,23.71 -3.49,11.55 -4.74,23.08 -4.74,35.23 0,33.87 6.32,50.81 18.97,50.81 9.03,0 25.09,-5.46 48.1,-16.26 22.1,-10.37 37.26,-15.58 45.39,-15.58 0.9,0.9 1.98,1.93 2.71,3.39 1.54,3.07 3.9,6.62 6.77,10.83 2.95,4.32 4.89,8.28 6.44,11.18 5.57,10.39 0.7,23.62 -7.79,30.83 -8.03,6.83 -14.45,10.16 -18.97,10.16 0.45,0 -4.89,-4.89 -14.9,-15.58 -9.82,-10.49 -17.39,-16.26 -23.72,-16.26 -9.95,0 -20.33,3.96 -28.45,9.49 -11.77,8.01 -17.61,15.35 -17.61,21.68 0,14.7 7.33,29.38 14.22,42 9.76,17.87 21.68,27.1 36.59,27.1 17.61,0 33.65,-5.42 48.1,-16.26l2.71 4.06c-10.84,17.62 -22.69,32.48 -35.91,44.04 -11.18,9.78 -30.55,23.71 -46.07,23.71 -17.16,0 -36.21,-23.39 -56.23,-70.46 -17.41,-40.95 -25.74,-74.52 -25.74,-100.26zm66.39 -203.92c0,15.24 -7.45,23.03 -22.35,23.03 -15.81,0 -23.72,-7.91 -23.72,-23.71l0 -46.07c0,-14.45 7.91,-21.68 23.72,-21.68 14.9,0 22.35,7.96 22.35,23.71l0 44.72zm98.91 0c0,15.24 -7.9,23.03 -23.71,23.03 -14.45,0 -21.68,-7.91 -21.68,-23.71l0 -46.07c0,-14.45 7.23,-21.68 21.68,-21.68 15.81,0 23.71,7.96 23.71,23.71l0 44.72zm291.32 119.23c0,14.62 -1.4,30.37 -4.06,44.71 -0.71,3.79 -6.21,33.2 -10.16,33.2 -7.25,0 -30.44,-60.29 -33.2,-67.75 -3.66,-9.88 -8.05,-18.66 -13.21,-26.08 -5.17,-7.42 -9.59,-13.34 -13.89,-16.6 -6.96,-5.28 -24.16,-7.45 -50.81,-7.45 -27.55,0 -41.37,8.41 -41.33,25.07l0.68 261.5c0.02,6.72 -7.68,10.17 -23.03,10.17 -17.62,0 -26.43,-4.52 -26.43,-13.55l0 -287.25c0,-10.4 2.04,-15.59 6.1,-15.59l183.6 0c17.16,0 25.74,19.88 25.74,59.62zm326.55 191.73c0,9.94 -10.01,22.78 -29.81,38.62 -20.79,16.62 -34.55,25.06 -41.33,25.06 -8.13,0 -32.44,-23.42 -72.49,-70.46 -19.51,-22.9 -34.13,-41.92 -44.04,-56.57 -9.9,-14.65 -14.9,-25.63 -14.9,-32.86 0,-22.16 48.07,-74.52 63.01,-90.78 11.74,-12.77 64.47,-69.78 81.29,-69.78 9.46,0 20.38,4.33 25.75,12.2 11.87,17.36 14.61,35.12 11.85,55.55 -1.35,10.08 -5.49,19.58 -8.8,29.13 -1.56,4.49 -2.6,6.78 -3.05,6.78 1.22,-1.23 -14.94,-12.49 -16.26,-13.55 -10.48,-8.45 -30.51,-25.75 -44.04,-25.75 -13.71,0 -31.23,13.96 -39.97,23.72 -14.52,16.21 -21,29.8 -21,39.29 0,17.92 35.69,62.48 47.42,76.56 13.82,16.57 48.58,54.87 71.81,54.87 7.68,0 18.52,-4.52 32.53,-13.55 1.35,0 2.03,3.84 2.03,11.52zm-226.96 52.84c0,8.02 -8.81,12.2 -26.42,12.2 -14.91,0 -22.36,-4.29 -22.36,-12.88l0 -293.35c0,-9.03 8.13,-13.55 24.39,-13.55 16.26,0 24.39,4.35 24.39,12.88l0 294.7zm303.51 -297.41c0,-8.13 8.58,-12.2 25.75,-12.2 15.35,0 23.03,4.58 23.03,13.55l0 186.31 10.16 0 118.56 -119.91 0.68 0 0 -67.75c0,-8.13 7.9,-12.2 23.71,-12.2 16.71,0 25.07,5.03 25.07,14.91l0 294.7c0,8.08 -10.84,12.2 -32.52,12.2 -10.84,0 -16.26,-4.75 -16.26,-14.23l0 -199.86 -10.16 0 -118.56 120.59 -0.68 0 0 82.66c0,7.17 -8.58,10.84 -25.75,10.84 -15.35,0 -23.03,-3.62 -23.03,-10.84l0 -298.77zm633.45 294.02c0,8.47 -1.78,13.76 -5.42,14.91 -2.77,0.86 -31.29,1.45 -35.23,0 -6.34,-2.34 -7.63,-8.03 -7.45,-14.23l6.77 -241.18 -25.07 0c-14.9,170.27 -48.32,255.41 -100.26,255.41 -37.45,0 -59.7,-79.75 -67.07,-107.72 -3.56,-13.53 -7.48,-32.78 -11.52,-57.59 -4.04,-24.81 -8.81,-54.87 -14.23,-90.1l-23.71 0 6.78 242.54c0.25,8.97 -11.75,13.55 -35.24,13.55 -9.03,0 -13.54,-4.52 -13.54,-13.55l0 -289.97c0,-8.58 2.71,-12.87 8.13,-12.87l50.13 0c6.32,0 12.16,5.46 14.23,16.94l22.36 123.98c5.78,32.07 27.38,90.1 67.74,90.1 15.81,0 29.84,-7.82 42.01,-23.37 12.16,-15.56 22.39,-35.46 29.13,-59.96 2.69,-9.78 4.88,-24.98 7.79,-45.05 2.91,-20.07 6.16,-44.84 9.14,-74.18 1.93,-18.93 6.33,-28.46 13.55,-28.46l54.88 0c4.07,0 6.1,4.35 6.1,12.87l0 287.93zm541.9 4.07c0,7.63 -8.35,11.52 -25.07,11.52 -15.8,0 -23.71,-3.84 -23.71,-11.52l0 -258.8c0,-14.9 -8.37,-22.35 -25.06,-22.35l-85.37 0c-18.04,0 -27.09,7.24 -27.09,21.67l0 259.48c0,7.2 -8.81,10.84 -26.43,10.84 -14.9,0 -22.35,-3.84 -22.35,-11.52l0 -289.28c0,-8.58 1.8,-12.88 5.42,-12.88l223.57 0c4.06,0 6.09,6.13 6.09,18.3l0 284.54zm339.42 -2.03c0,9.03 -8.58,13.55 -25.74,13.55 -13.1,0 -21.13,-3 -24.39,-8.81l-39.97 -71.14 -10.17 0c-23.14,31.31 -71.29,60.33 -108.05,72.16 -13.31,4.28 -24.96,6.43 -34.89,6.43 -8.13,0 -15.48,-4.97 -22.02,-14.9 -6.55,-9.94 -9.83,-21.23 -9.83,-33.88 0,-10.84 3.85,-24.52 11.52,-40.98 16.42,-35.27 39.82,-69.69 65.04,-99.26 13.09,-15.34 24.84,-27.77 35.23,-37.26 -15.36,-23.48 -25.98,-43.59 -31.84,-60.29 -5.86,-16.7 -8.81,-26.2 -8.81,-28.46 0,-4.51 10.16,-6.77 30.48,-6.77 18.53,0 29.39,2.38 31.85,7.45l136.17 281.16c3.17,6.53 5.42,13.32 5.42,21zm-152.43 -197.83l-9.49 0c-5.41,5.42 -12.09,13.23 -19.98,23.37 -15.81,20.33 -29.94,43.83 -40.31,67.41 -4.96,11.28 -7.45,20.33 -7.45,27.1 0,23.04 13.32,34.56 39.97,34.56 32.83,0 69.73,-12.44 91.46,-37.94l0.67 0 -54.87 -114.5zm338.74 33.87c0,-44.71 -20.1,-75.65 -60.3,-92.81l-8.13 0c-11.74,29.36 -17.61,57.14 -17.61,83.33 0,5.42 3.16,55.55 9.48,150.4l6.1 0c24.62,0 42.82,-19.31 55.44,-57.59 9.72,-29.44 15.02,-57.13 15.02,-83.33zm285.22 6.1c0,28.01 -9.27,62.11 -29.13,101.62 -22.58,44.93 -45.17,67.07 -66.4,67.07 -9.48,0 -25.23,-12.75 -46.74,-38.61 -25.44,-30.57 -37.94,-68.65 -37.94,-113.82 0,-10.84 2.83,-24.51 8.47,-40.99 5.63,-16.47 13.28,-35.2 23.37,-55.89 8.03,-16.47 35.49,-69.78 56.91,-69.78 8.13,0 21.23,9.04 39.29,27.1 34.78,34.78 52.17,75.88 52.17,123.3zm-36.58 48.78c0,-45.16 -10.67,-81.05 -31.85,-107.72 -15.38,-19.38 -32.07,-29.13 -50.13,-29.13 -18.97,0 -28.45,25.07 -28.45,75.2 0,42.46 14.68,76.57 44.03,102.3 10.82,9.48 20.55,14.23 29.13,14.23 24.85,0 37.27,-18.3 37.27,-54.88zm428.16 107.04c0,8.54 -1.75,13.75 -5.42,14.91 -2.78,0.88 -31.27,1.47 -35.22,0 -6.36,-2.36 -7.63,-8.03 -7.46,-14.23l6.78 -241.18 -25.07 0c-14.9,170.27 -48.33,255.41 -100.27,255.41 -37.44,0 -59.68,-79.73 -67.07,-107.72 -3.57,-13.55 -7.46,-32.76 -11.51,-57.59 -4.06,-24.83 -8.81,-54.87 -14.23,-90.1l-23.71 0 6.77 242.54c0.25,9 -11.74,13.55 -35.23,13.55 -9.03,0 -13.55,-4.52 -13.55,-13.55l0 -289.97c0,-8.58 2.71,-12.87 8.13,-12.87l50.13 0c6.33,0 12.16,5.42 14.23,16.94l22.36 123.98c5.79,32.11 27.39,90.1 67.75,90.1 15.8,0 29.82,-7.8 42,-23.37 12.19,-15.57 22.37,-35.45 29.13,-59.96 2.71,-9.81 4.87,-24.96 7.79,-45.05 2.93,-20.09 6.14,-44.82 9.15,-74.18 1.94,-18.95 6.32,-28.46 13.55,-28.46l54.88 0c4.06,0 6.09,4.32 6.09,12.87l0 287.93z"/>
  <line class="fil7 str0" x1="4862.68" y1="1824.47" x2="5384.26" y2= "1824.47" />
  <line class="fil7 str0" x1="-0" y1="1824.47" x2="521.58" y2= "1824.47" />
  <path class="fil8" d="M4859.38 546.43c-67.3,146.89 -100.45,300.46 -26.85,451.77 38.13,76.88 73.84,132.48 63.32,222.67 -9.68,69.39 -44.32,101.02 -111.69,118.33 -63.96,16.41 -142.15,5.93 -200.25,-24.36 -31.72,-18.18 -52.89,-35.86 -77.29,-62.98 -50.35,-62.63 29.91,-72.5 76.5,-88.46 62.68,-21.45 94.64,-42.74 151.08,-72.2 20.26,-10.56 24.82,-10.41 14.68,12.64 -7.58,17.2 -32.39,28.64 -48.06,38.16 -49.79,30.22 -85.38,42.38 -137.08,64.74 -42.06,18.21 -48.59,19.54 -6.64,46.26 4.92,3.15 9.09,5.56 14.24,8.21 93.21,30.1 206.91,8.42 251.19,-87.69 6.58,-15.44 10.98,-30.81 15.31,-46.96 10.03,-73.16 -63.86,-172.87 -81.47,-273.81 -26.58,-152.41 -18.96,-305.78 61.98,-439.78 11.14,-18.45 25.94,-22.09 46.39,-27.41 19.26,-5.01 97.48,-24.61 117.77,-21.1 9.24,1.6 3.6,2.43 -3.32,12.52 -24.06,34.98 -53.55,66.78 -78.42,102.57 -14.95,21.96 -28.3,43.78 -41.39,66.88z"/>
 </g>
</svg>
