<svg xmlns="http://www.w3.org/2000/svg" xml:space="preserve" version="1.1" viewBox="0 0 450 548">
 <g id="layer_x0020_1">
  <g id="_1710812616864">
   <path class="fil0" d="M74.12 159.84l306.5 0c6.3,0 12.17,6.11 14.02,10.39 2.84,6.56 2.1,28.54 2.48,35.28 0.28,5.07 1.15,5.47 1.23,11.36l1.09 36.62c0.17,5.63 1.08,5.7 1.26,11.34 0.12,4.13 -0.21,8.5 -0.08,12.63 0.17,5.64 1.08,5.71 1.26,11.34 0.12,4.14 -0.14,8.49 -0.09,12.64l2.41 35.35c0.22,4.03 -0.1,8.52 -0.05,12.61l1.18 23.97c0.07,5.89 0.94,6.29 1.23,11.37 1.21,21.7 2.71,80.34 4.54,96.07 1.78,15.35 -1.22,30.65 -19.87,30.65l-332.44 0c-7.19,0 -14.23,-3.91 -17.24,-8.42 -3.32,-4.98 -3.56,-14.17 -2.63,-22.23 2.43,-20.9 2.35,-69.59 4.61,-96.01l5.82 -121.08c0.29,-5.08 1.16,-5.48 1.24,-11.37l2.37 -61.63c1.03,-12.07 -0.06,-30.88 21.16,-30.88zm75.44 -46.81c0,-11.81 2.36,-22.48 5.86,-30.86 1.88,-4.48 3.77,-7.76 6.4,-12.07 19.4,-31.72 68.94,-44.95 106.14,-20.37 11.95,7.9 20.13,19.14 26.22,31.7 6.28,12.94 6.28,27.02 6.28,41.87l-150.9 0 0 -10.27zm-37.72 -7.99l0 18.26 -44.8 0c-25.78,0 -47.8,22.42 -51.57,50.52 -0.74,5.51 0.11,11.27 -0.36,16.78 -0.46,5.46 -1.18,8.88 -1.11,16.05l-9.43 194.08c0.06,6.84 -0.68,9.73 -1.12,14.9 -0.47,5.43 0.25,11.58 -0.06,17.07l-3.39 63.76c1.06,9.48 4.14,18.94 8.78,25.76 9.47,13.9 26.43,25.78 44.12,25.78l343.04 0c19.61,0 36.24,-12.62 44.35,-24.42 16,-23.28 7.37,-48.31 7.5,-71.46l-1.11 -33.17c-0.08,-6.61 -1.29,-8.61 -1.25,-15.92l-3.34 -65.26c-0.56,-4.86 -0.06,-10.87 -0.13,-15.87 -0.08,-6.6 -1.29,-8.6 -1.25,-15.91 0.07,-11.72 -0.74,-20.99 -1.11,-33.17l-4.81 -96.95c-2.26,-28.65 -25.91,-52.57 -51.81,-52.57l-44.8 0c0,-30.38 -1.26,-51.3 -20.54,-77.15l-12.13 -14.51c-18.01,-17.45 -48.72,-31.64 -75.79,-31.64 -29.91,0 -56.32,7.05 -77.5,25.41 -14.59,12.65 -20.28,19.18 -29.78,37.38 -5.71,10.95 -10.6,25.87 -10.6,42.25z"/>
   <path class="fil0" d="M217.94 307.11c20.55,0 35.94,-0.31 54.24,-9.12 21.83,-10.5 39.05,-23.21 51.82,-44.58 6.97,-11.66 13,-24.78 13,-39.92 0,-11.62 -19.4,-22.98 -32.78,-10.06 -8.63,8.34 -1.57,16.22 -19.92,40.08 -9.66,12.57 -31.41,27.06 -53.4,27.06 -20.07,0 -25.04,0.06 -43.22,-9.51 -42.15,-22.19 -27.39,-63.55 -54.62,-63.55 -7.84,0 -15.43,5.47 -18.06,11.05 -7.31,15.47 12.32,46.37 23.44,60.23 14.23,17.74 47.59,38.32 79.5,38.32z"/>
  </g>
 </g>
</svg>
