<svg xmlns="http://www.w3.org/2000/svg" xml:space="preserve" version="1.1" viewBox="0 0 435.81 548">
  <path class="fil0" d="M71.78 159.83l296.83 0c6.1,0 11.79,6.12 13.58,10.4 2.75,6.56 2.04,28.54 2.4,35.28 0.27,5.07 1.12,5.47 1.19,11.36l1.06 36.62c0.17,5.63 1.05,5.7 1.22,11.34 0.12,4.13 -0.2,8.5 -0.08,12.63 0.17,5.64 1.05,5.71 1.22,11.34 0.12,4.14 -0.13,8.49 -0.08,12.64l2.33 35.35c0.22,4.03 -0.1,8.52 -0.05,12.6l1.14 23.98c0.07,5.89 0.92,6.29 1.19,11.37 1.18,21.7 2.63,80.34 4.4,96.07 1.73,15.35 -1.18,30.65 -19.24,30.65l-321.95 0c-6.97,0 -13.79,-3.91 -16.69,-8.42 -3.22,-4.98 -3.46,-14.17 -2.55,-22.23 2.35,-20.9 2.27,-69.59 4.46,-96.01l5.64 -121.08c0.28,-5.08 1.12,-5.48 1.19,-11.37l2.3 -61.63c1,-12.07 -0.06,-30.89 20.49,-30.89zm73.07 -46.8c0,-11.81 2.28,-22.48 5.67,-30.86 1.82,-4.48 3.65,-7.76 6.2,-12.07 18.79,-31.72 66.76,-44.95 102.79,-20.37 11.58,7.9 19.49,19.14 25.4,31.7 6.08,12.94 6.07,27.02 6.07,41.87l-146.13 0 0 -10.27zm-36.53 -7.99l0 18.26 -43.39 0c-24.97,0 -46.29,22.42 -49.95,50.52 -0.71,5.51 0.12,11.27 -0.34,16.78 -0.45,5.46 -1.14,8.88 -1.08,16.05l-9.13 194.08c0.06,6.84 -0.66,9.73 -1.09,14.9 -0.45,5.43 0.25,11.58 -0.05,17.07l-3.29 63.76c1.03,9.48 4.01,18.94 8.51,25.76 9.17,13.9 25.6,25.78 42.72,25.78l332.22 0c18.99,0 35.1,-12.62 42.95,-24.42 15.5,-23.28 7.14,-48.31 7.26,-71.46l-1.07 -33.17c-0.08,-6.61 -1.25,-8.61 -1.21,-15.92l-3.23 -65.26c-0.55,-4.86 -0.06,-10.87 -0.13,-15.87 -0.08,-6.6 -1.25,-8.6 -1.21,-15.91 0.06,-11.72 -0.71,-20.99 -1.08,-33.17l-4.65 -96.95c-2.19,-28.65 -25.1,-52.57 -50.18,-52.57l-43.39 0c0,-30.38 -1.22,-51.3 -19.88,-77.15l-11.75 -14.51c-17.45,-17.45 -47.19,-31.64 -73.4,-31.64 -28.97,0 -54.55,7.05 -75.06,25.41 -14.12,12.65 -19.64,19.18 -28.83,37.38 -5.54,10.95 -10.27,25.86 -10.27,42.25z"/>
  <path class="fil0" d="M211.06 307.11c19.91,0 34.82,-0.31 52.54,-9.12 21.14,-10.5 37.81,-23.21 50.18,-44.58 6.75,-11.66 12.59,-24.78 12.59,-39.92 0,-11.63 -18.79,-22.98 -31.75,-10.06 -8.36,8.34 -1.51,16.22 -19.29,40.08 -9.35,12.57 -30.42,27.06 -51.71,27.06 -19.43,0 -24.25,0.06 -41.86,-9.51 -40.82,-22.19 -26.52,-63.55 -52.89,-63.55 -7.59,0 -14.94,5.47 -17.5,11.05 -7.07,15.47 11.94,46.37 22.7,60.23 13.79,17.74 46.1,38.32 76.99,38.32z"/>
</svg>
