<svg xmlns="http://www.w3.org/2000/svg" xml:space="preserve" viewBox="0 0 966.71 548">
 <defs>
  <style type="text/css">
   <![CDATA[
    .fil1 {fill:#FF1E00}
   ]]>
  </style>
 </defs>
 <g id="layer_x0020_1">
  <metadata id="CorelCorpID_0Corel-Layer"/>
  <g id="_1710839582752">
   <path class="fil0" d="M602.68 159.81l296.83 0c6.09,0 11.79,6.14 13.59,10.41 2.74,6.56 2.04,28.55 2.38,35.28 0.29,5.08 1.12,5.48 1.2,11.36l1.06 36.6c0.18,5.66 1.03,5.71 1.23,11.36 0.11,4.13 -0.22,8.5 -0.11,12.65 0.18,5.61 1.09,5.68 1.24,11.31 0.13,4.17 -0.12,8.5 -0.08,12.65 1.58,24.02 2.3,47.9 3.43,71.93 0.04,5.91 0.9,6.3 1.19,11.37 1.16,21.71 2.62,80.35 4.38,96.08 1.75,15.34 -1.19,30.65 -19.23,30.65l-321.93 0c-11.58,0 -16.88,-6.38 -18.79,-14.76 -12.38,4.25 -25.03,5.62 -37.39,5.08 4.44,23.68 25.08,46.22 50.44,46.22l332.23 0c18.98,0 35.09,-12.62 42.95,-24.42 15.49,-23.3 7.15,-48.34 7.26,-71.47 -1.39,-43.42 -5.03,-86.8 -5.63,-130.22 -0.06,-6.6 -1.27,-8.62 -1.24,-15.9 0.09,-11.71 -0.68,-21 -1.07,-33.2l-4.63 -96.93c-2.2,-28.65 -25.11,-52.56 -50.19,-52.56l-43.36 0c0,-30.4 -1.23,-51.32 -19.91,-77.16l-11.74 -14.5c-17.46,-17.45 -47.2,-31.64 -73.4,-31.64 -47.7,0 -82.58,20.57 -103.9,62.78 -10.9,21.62 -10.28,37.67 -10.28,60.52l-43.39 0c-24.97,0 -46.28,22.41 -49.95,50.5 -0.74,5.91 0.08,12.14 -0.45,18.26 12.73,1 25,4.12 36.39,9.03 0.61,-16.2 -1.71,-41.28 20.87,-41.28zm70.05 81.31l139.97 0 0 25.28 -111.36 0 0 66.54 51.49 0c19,0 34.1,1.84 45.34,5.48 46.97,15.16 49.19,83.76 8.12,109.27 -9.58,5.95 -25.99,8.98 -49.12,8.98l-84.44 0 0 -215.55zm28.61 191.16l57.04 0c25.74,0 46.21,-8.69 46.21,-37.52 0,-38.59 -36.48,-37.13 -65.17,-37.13l-38.08 0 0 74.65zm-584.34 24.39l82.68 -215.55 31.37 0 87.74 215.55 -32.45 0 -24.94 -65.33 -90.77 0 -23.37 65.33 -30.26 0zm62.01 -88.51l73.46 0c-12.94,-34.4 -27.39,-69.66 -37.93,-104.77 -7.43,35.24 -22.9,70.95 -35.53,104.77zm-107.23 -208.35l296.81 0c6.12,0 11.8,6.14 13.6,10.41 2.23,5.32 2.18,20.84 2.27,30.08 12.55,-2.59 25.3,-4.09 37.56,-4.86l-0.93 -19.58c-2.2,-28.65 -25.1,-52.56 -50.19,-52.56l-43.39 0c0,-30.4 -1.22,-51.32 -19.89,-77.16l-11.75 -14.5c-17.44,-17.45 -47.19,-31.64 -73.39,-31.64 -47.71,0 -82.54,20.58 -103.89,62.78 -10.9,21.51 -10.26,37.75 -10.26,60.52l-43.39 0c-24.98,0 -46.3,22.41 -49.96,50.5 -0.71,5.51 0.13,11.28 -0.34,16.79 -0.45,5.45 -1.14,8.88 -1.09,16.05l-9.12 194.1c0.06,6.83 -0.65,9.71 -1.09,14.89 -0.44,5.42 0.23,11.57 -0.06,17.08l-3.28 63.74c1.02,9.49 4.01,18.95 8.5,25.76 9.17,13.9 25.61,25.79 42.73,25.79l332.22 0c19,0 35.1,-12.62 42.96,-24.42 12.56,-18.9 9.43,-38.93 7.87,-58.17 -12.86,-0.05 -25.43,-0.95 -37.41,-2.9 0.88,17.18 8.06,48.95 -17.96,48.95l-321.98 0c-18.33,0 -20.86,-16.06 -19.25,-30.65 2.36,-20.92 2.3,-69.59 4.47,-96.02l5.65 -121.07c0.28,-5.09 1.11,-5.49 1.2,-11.38l2.29 -61.63c1,-12.07 -0.06,-30.9 20.49,-30.9zm73.06 -46.78c0,-16.33 3.67,-29.11 11.88,-42.93 18.79,-31.72 66.75,-44.96 102.79,-20.37 11.59,7.89 19.5,19.15 25.38,31.67 6.09,12.95 6.09,27.05 6.09,41.9l-146.14 0 0 -10.27zm530.91 0c0,-16.52 3.67,-28.95 11.86,-42.93 18.82,-31.72 66.79,-44.96 102.81,-20.37 11.56,7.89 19.47,19.15 25.39,31.67 6.07,12.95 6.07,27.05 6.07,41.9l-146.13 0 0 -10.27z"/>
   <polygon class="fil1 str0" points="467.63,301.96 323.64,304.31 323.24,279.54 467.24,277.18 403.91,237.56 417.06,216.54 532.09,288.51 419.47,364.17 405.66,343.6 "/>
   <polygon class="fil1 str0" points="492.13,401.93 636.11,399.59 636.52,424.35 492.51,426.72 555.84,466.34 542.69,487.36 427.66,415.38 540.28,339.72 554.1,360.3 "/>
  </g>
 </g>
</svg>
