<svg xmlns="http://www.w3.org/2000/svg" xml:space="preserve" viewBox="0 0 548 547.99">
 <g id="layer_x0020_1">
  <metadata id="CorelCorpID_0Corel-Layer"/>
  <path class="fil0" d="M77.4 422.86c23.2,10.78 15.92,40.45 -9.48,40.7 -13.82,-0.87 -25,-11.89 -21.69,-26.09 2.66,-11.47 16.16,-19.57 31.17,-14.61zm285.44 -300.53c-7.1,30.23 -30.49,55.15 -31.61,87.97 24.48,1.42 120.39,-1.58 133.9,0.87 6.16,1.12 11.58,3.46 15.91,6.2 4.41,2.79 9.22,6.7 11.46,10.42 3.48,0.77 8.44,13.9 9.05,16.48 3.05,13.04 -2.72,30.12 -9.87,40.51 -1.96,2.86 -4.12,4.87 -6.34,6.6 -3.29,2.56 -6.31,2.3 -8.96,3.97 17.22,19.44 15.32,57.4 -7.03,72l1.65 3.93c4.46,7.09 5.38,17.84 4.16,26.63 -1.57,10.45 -6.8,21.47 -14.19,28.38 -2.79,2.59 -5.15,3.58 -8.26,6.13 1.57,21.68 4.87,39.8 -13.61,57.62 -15.71,15.16 -41.11,15.67 -62.41,15.64 -26.87,-0.03 -49.69,0.59 -75.41,-3.72 -11.1,-1.86 -56.79,-11.32 -62.71,-14.98 -7.76,-1.43 -17.04,-5.13 -24.46,-7.43 -29.77,-9.22 -42.04,-15.76 -76.63,-15.97 -1.6,-4.27 -0.51,-189.64 -0.51,-211.04 27.8,0.26 30.61,-5.48 48.52,-20.25 9.79,-8.07 24.01,-24.66 32.38,-34.38 4.24,-4.92 16.98,-21.5 20.67,-23.79 0.48,-2.14 0.65,-1.45 2.37,-3.47 14.15,-16.64 28.97,-27.96 37.91,-46.37 9.64,-19.85 14.33,-55.79 20.01,-67.82 2.2,-6.63 5.99,-10.25 8.68,-14.5 13.69,-1.01 32.79,2.87 40.73,9.44 8.47,7.01 13.99,18.58 15.55,32.1 2.76,9.41 1.97,29.84 -0.95,38.83zm-68.55 -120.72c-0.82,0.54 -5.44,2.19 -7.26,3.05 -15.27,7.22 -27.05,25.26 -32.11,40.56 -3.08,9.3 -15.16,60.43 -18.29,63.21 -2.19,5.83 -13.18,16.65 -17.68,20.95 -13.41,12.87 -39.56,47.55 -50.43,57.7 -0.07,0.06 -1.15,0.97 -1.16,0.97 -1.15,0.92 -0.26,0.25 -1.33,0.97 -0.49,1.95 -0.67,1.78 -2.41,3.38 -1.36,1.25 -1.53,1.46 -2.69,2.79 -1.94,2.25 -3.84,3.58 -5.94,5.66 -2.45,2.43 -8.92,9.47 -13.42,9.75 -21.57,1.39 -69.84,-0.71 -96.64,-0.02 -16.25,0.42 -22.1,5.23 -31.88,12.67 -0.1,0.07 -0.28,0.21 -0.36,0.27l-1.11 0.66c-0.96,2.16 -0.8,2.22 -3.23,3.51 -0.43,1.71 0.22,-0.14 -0.52,1.31 -0.16,0.32 -0.79,1.33 -0.99,1.65 -0.79,1.25 -1.05,1.66 -1.8,2.94 -4.43,7.64 -4.91,14.31 -4.9,23.06l0 186.26c-0.01,22.24 -3.05,41.12 20.53,55.88 10.24,6.41 18.47,6.71 32.79,6.76l80.99 -0.01c16.54,0 20.28,0.48 35.12,4.67 31.81,9 59.75,19.15 92.2,27l32.52 6.89c17.03,1.51 30.98,3.58 49.01,3.57 39.77,-0.03 78.62,4.15 113.04,-16.77 48.03,-29.19 41.74,-77.1 43.86,-82.24 1.53,-3.7 19.53,-20.16 20.89,-53.62 0.49,-11.86 -2.6,-18.89 1.58,-22.1l0.38 -1.08c0.88,-3.24 2.64,-5.92 4.02,-9.19 6.69,-15.81 8.55,-36.31 4.38,-52.85 -1.29,-5.13 -0.1,-5.18 2.5,-8.99 8.74,-12.8 13.72,-31.1 14.02,-47.46 0.4,-21.53 -5.88,-26.93 -10.02,-39.77l-9.85 -12.78c-40.6,-45.46 -83.3,-28.63 -133.89,-32.49 0.77,-4.81 15.14,-25.14 16.7,-59.25 0.68,-14.68 -1.39,-36.73 -6.22,-50.72 -1.04,-3.01 -5,-11.7 -5.07,-13.38 -0.98,-0.86 -0.36,-0.12 -1.46,-1.61 -0.06,-0.09 -0.77,-1.26 -0.79,-1.29 -8.57,-14.76 -19.94,-25.16 -37.27,-32.47 -19.22,-8.11 -42.93,-12.05 -65.81,-8z"/>
 </g>
</svg>
